<?xml version="1.0" encoding="UTF-8"?>
<svg width="37px" height="36px" viewBox="0 0 37 36" version="1.1" xmlns="http://www.w3.org/2000/svg" xmlns:xlink="http://www.w3.org/1999/xlink">
    <!-- Generator: Sketch 55.1 (78136) - https://sketchapp.com -->
    <title>baobiao</title>
    <desc>Created with Sketch.</desc>
    <g id="新" stroke="none" stroke-width="1" fill="none" fill-rule="evenodd">
        <g id="1-3收藏" transform="translate(-51.000000, -810.000000)" fill-rule="nonzero">
            <g id="baobiao" transform="translate(51.000000, 810.000000)">
                <path d="M35.3118851,19.5947738 C35.7821149,19.5947738 36.2533388,19.5947738 36.4889508,19.8293888 C36.7831135,20.1504577 36.9502084,20.5669549 36.9591805,21.0014734 L36.9591805,34.5933004 C36.9591805,35.2971452 36.2533388,36 35.547497,36 L1.42054631,36 C0.950316537,36 0.714704562,35.7653851 0.479092587,35.5307701 C0.243480612,35.2961552 0.00886281603,34.8279153 0.00886281603,34.5933004 L0.00886281603,21.0014734 C0.00886281603,20.0640037 0.9503165,19.3601589 1.65615825,19.5947738 L18.1311008,26.1570623 L18.8369425,26.1570623 L35.3118851,19.5947738 Z" id="路径" fill="#1CA0DA"></path>
                <path d="M29.8987749,0 L7.06728017,0 C5.18636108,0 3.77467759,1.40570969 3.77467759,3.28064927 L3.77467759,18.0455508 L18.3667128,23.6703695 L32.9587479,18.0455508 L33.1933658,18.0455508 L33.1933658,3.28064927 C33.1933658,1.40570969 31.7816823,0 29.8987749,0 Z M12.4823787,17.1080811 L9.18778779,17.1080811 L9.18778779,13.8274318 L12.4823787,13.8274318 L12.4823787,17.1080811 Z M12.4823787,10.7804075 L9.18778779,10.7804075 L9.18778779,7.49975825 L12.4823787,7.49975825 L12.4823787,10.7804075 Z M28.0158675,17.1080811 L15.0711278,17.1080811 L15.0711278,13.8274318 L28.0158675,13.8274318 L28.0158675,17.1080811 Z M28.0158675,10.7804075 L15.0711278,10.7804075 L15.0711278,7.49975825 L28.0158675,7.49975825 L28.0158675,10.7804075 Z" id="形状" fill="#6ECCF6"></path>
            </g>
        </g>
    </g>
</svg>