<?xml version="1.0" encoding="UTF-8"?>
<svg width="18px" height="18px" viewBox="0 0 18 18" version="1.1" xmlns="http://www.w3.org/2000/svg" xmlns:xlink="http://www.w3.org/1999/xlink">
    <!-- Generator: Sketch 55.1 (78136) - https://sketchapp.com -->
    <title>biaoqing</title>
    <desc>Created with Sketch.</desc>
    <g id="页面1" stroke="none" stroke-width="1" fill="none" fill-rule="evenodd">
        <g id="B-2-聊天" transform="translate(-625.000000, -613.000000)">
            <g id="biaoqing" transform="translate(624.000000, 612.000000)">
                <rect id="矩形" x="0" y="0" width="20" height="20"></rect>
                <path d="M10,1 C14.9695652,1 19,5.03043479 19,10 C19,14.9695652 14.9695652,19 10,19 C5.03043479,19 1,14.9695652 1,10 C1,5.03043479 5.03043479,1 10,1 Z M10,2.32237921 C5.58095238,2.32237921 2.3722418,5.58095238 2.3722418,10 C2.3722418,14.4190476 5.58095238,17.6290119 10,17.6290119 C14.4190476,17.6290119 17.6216849,14.4200806 17.6216849,10.001033 C17.6216849,5.58198541 14.4190476,2.32237921 10,2.32237921 Z M14.5,10.5478261 C15.1652174,10.5478261 15.673913,11.0565217 15.673913,11.7217391 C15.673913,11.8391304 15.673913,11.9173913 15.6347826,12.0347826 C14.9304348,14.8130435 13.0130435,16.2608696 10,16.2608696 C6.98695652,16.2608696 5.10869564,14.8130435 4.52173913,11.9956522 C4.40434782,11.3695652 4.79565218,10.7434783 5.42173913,10.5869565 C5.5,10.5869565 5.57826087,10.5478261 5.65652174,10.5478261 L14.5,10.5478261 Z M5.63792731,11.4333795 C5.44227514,11.4725099 5.34845854,11.6442876 5.38758897,11.8790702 C5.95312681,14.2292606 7.33913044,15.3888723 10,15.3888723 C12.6608696,15.3888723 14.1215559,14.1276669 14.7819986,11.8790702 L14.7819986,11.7616789 C14.7819986,11.6051572 14.6733384,11.4333795 14.4385558,11.4333795 L5.63792731,11.4333795 Z M6.79130436,6.4 C7.37826087,6.4 7.88695652,6.86956521 7.88695652,7.49565218 C7.88695652,8.12173915 7.41739131,8.59130436 6.79130436,8.59130436 C6.1652174,8.59130436 5.69565218,8.08260871 5.69565218,7.49565218 C5.69565218,6.90869564 6.16521739,6.4 6.79130436,6.4 Z M13.2086956,6.4 C13.7956522,6.4 14.3043478,6.86956521 14.3043478,7.49565218 C14.3043478,8.12173915 13.8347826,8.59130436 13.2086956,8.59130436 C12.5826087,8.59130436 12.1130435,8.12173915 12.1130435,7.49565218 C12.1130435,6.86956521 12.6217391,6.4 13.2086956,6.4 Z" id="形状" fill="#4D574F" fill-rule="nonzero"></path>
            </g>
        </g>
    </g>
</svg>