<?xml version="1.0" encoding="UTF-8"?>
<svg width="16px" height="15px" viewBox="0 0 16 15" version="1.1" xmlns="http://www.w3.org/2000/svg" xmlns:xlink="http://www.w3.org/1999/xlink">
    <!-- Generator: Sketch 55.1 (78136) - https://sketchapp.com -->
    <title>bj</title>
    <desc>Created with Sketch.</desc>
    <g id="页面1" stroke="none" stroke-width="1" fill="none" fill-rule="evenodd">
        <g id="B-17-租户" transform="translate(-705.000000, -222.000000)" fill-rule="nonzero">
            <g id="bj" transform="translate(705.000000, 221.000000)">
                <rect id="矩形" fill="#000000" opacity="0" x="0" y="0" width="16" height="16"></rect>
                <polygon id="路径" points="0 0 16 0 16 16 0 16"></polygon>
                <path d="M15.375,15.21875 L0.625,15.21875 C0.279822031,15.21875 0,14.938928 0,14.59375 C0,14.248572 0.279822031,13.96875 0.625,13.96875 L15.375,13.96875 C15.720178,13.96875 16,14.248572 16,14.59375 C16,14.938928 15.720178,15.21875 15.375,15.21875 Z" id="路径" fill="#5561FF"></path>
                <path d="M14.375,13.21875 L8.625,13.21875 C8.27982203,13.21875 8,12.938928 8,12.59375 C8,12.248572 8.27982203,11.96875 8.625,11.96875 L14.375,11.96875 C14.720178,11.96875 15,12.248572 15,12.59375 C15,12.938928 14.720178,13.21875 14.375,13.21875 L14.375,13.21875 Z" id="路径" fill="#5561FF"></path>
                <polygon id="路径" points="2.90321875 9.00071875 3.47734375 9.57484375 5.43596875 11.5334375 6.01003125 12.1075625 5.2258125 12.3176875 2.55028125 13.0345625 1.7660625 13.2447188 1.9761875 12.4605 2.69309375 9.78496875 2.90321875 9.00071875"></polygon>
                <path d="M2.42896875,12.5818125 L5.1045,11.8649375 L3.145875,9.90625 L2.429,12.5817813 L2.42896875,12.5818125 Z M1.7660625,13.2446875 C1.52921934,13.0078529 1.436719,12.6626534 1.52340625,12.339125 L2.2403125,9.663625 C2.32699735,9.34009902 2.57969711,9.08739488 2.90322159,9.00070442 C3.22674606,8.91401397 3.57194379,9.00650764 3.80878125,9.24334375 L5.76740625,11.2019688 C6.00422592,11.4388074 6.096709,11.7839947 6.01001972,12.1075083 C5.92333045,12.4310219 5.6706382,12.6837154 5.347125,12.7704063 L2.671625,13.4873438 C2.34809662,13.574031 2.00289705,13.4815307 1.7660625,13.2446875 L1.7660625,13.2446875 Z" id="形状" fill="#5561FF"></path>
                <path d="M5.1401875,11.4333125 L3.68178125,9.97490625 C3.3771875,9.6703125 3.3771875,9.17465625 3.68178125,8.8700625 L10.3109375,2.2409375 C10.6155625,1.9363125 11.1111875,1.9363125 11.4158125,2.2409375 L12.8742187,3.69934375 C13.1788125,4.00396875 13.1788125,4.49959375 12.8742187,4.8041875 L6.2450625,11.4333125 C5.9404375,11.7379375 5.4448125,11.7379375 5.1401875,11.4333125 Z" id="路径"></path>
                <path d="M10.9738438,2.682875 C10.9127782,2.62193954 10.8139093,2.62193954 10.7528438,2.682875 L4.12375,9.312 C4.06283533,9.37306195 4.06283533,9.4719068 4.12375,9.53296875 L5.5821875,10.9914063 C5.64324584,11.0523001 5.74206666,11.0523001 5.803125,10.9914063 L12.4322812,4.36225 C12.4931751,4.30119166 12.4931751,4.20237084 12.4322812,4.1413125 L10.9738438,2.682875 L10.9738438,2.682875 Z M11.85775,1.799 L13.3161563,3.25740625 C13.8653125,3.8065625 13.8653125,4.69696875 13.3161563,5.24615625 L6.687,11.8752187 C6.1378125,12.4244062 5.2474375,12.4244062 4.69825,11.8752187 L3.23984375,10.4168125 C2.6906875,9.86765625 2.6906875,8.97725 3.23984375,8.4280625 L9.86896875,1.79903125 C10.4181563,1.24984375 11.3085313,1.24984375 11.8577188,1.79903125 L11.85775,1.799 Z" id="形状" fill="#5561FF"></path>
            </g>
        </g>
    </g>
</svg>