<?xml version="1.0" encoding="UTF-8"?>
<svg width="24px" height="24px" viewBox="0 0 24 24" version="1.1" xmlns="http://www.w3.org/2000/svg" xmlns:xlink="http://www.w3.org/1999/xlink">
    <!-- Generator: Sketch 55.1 (78136) - https://sketchapp.com -->
    <title>fatie1</title>
    <desc>Created with Sketch.</desc>
    <g id="页面1" stroke="none" stroke-width="1" fill="none" fill-rule="evenodd">
        <g id="fatie1" transform="translate(1.000000, 1.000000)" fill="#9FA4BB" fill-rule="nonzero">
            <path d="M16.1944444,22 L5.80555557,22 C2.60333333,22 0,19.3966667 0,16.1944444 L0,5.80555557 C0,2.60333333 2.60333333,0 5.80555557,0 L16.1944444,0 C19.3966667,0 22,2.60333333 22,5.80555557 L22,16.1944444 C22,19.3966667 19.3966667,22 16.1944444,22 Z M5.80555557,1.83333333 C3.61777777,1.83333333 1.83333333,3.61777777 1.83333333,5.80555557 L1.83333333,16.1944444 C1.83333333,18.3822222 3.61777777,20.1666667 5.80555557,20.1666667 L16.1944444,20.1666667 C18.3822222,20.1666667 20.1666667,18.3822222 20.1666667,16.1944444 L20.1666667,5.80555557 C20.1666667,3.6177778 18.3822222,1.83333333 16.1944444,1.83333333 L5.80555557,1.83333333 Z" id="形状"></path>
            <path d="M15.8888889,11.9166667 L6.1111111,11.9166667 C5.60388887,11.9166667 5.19444443,11.5072222 5.19444443,11 C5.19444443,10.4927778 5.60388887,10.0833333 6.1111111,10.0833333 L15.8888889,10.0833333 C16.3961111,10.0833333 16.8055556,10.4927778 16.8055556,11 C16.8055556,11.5072222 16.3961111,11.9166667 15.8888889,11.9166667 Z" id="路径"></path>
            <path d="M11,16.8055556 C10.4927778,16.8055556 10.0833333,16.3961111 10.0833333,15.8888889 L10.0833333,6.1111111 C10.0833333,5.60388887 10.4927778,5.19444443 11,5.19444443 C11.5072222,5.19444443 11.9166667,5.60388887 11.9166667,6.1111111 L11.9166667,15.8888889 C11.9166667,16.3961111 11.5072222,16.8055556 11,16.8055556 Z" id="路径"></path>
        </g>
    </g>
</svg>