<?xml version="1.0" encoding="UTF-8"?>
<svg width="40px" height="41px" viewBox="0 0 40 41" version="1.1" xmlns="http://www.w3.org/2000/svg" xmlns:xlink="http://www.w3.org/1999/xlink">
    <!-- Generator: Sketch 55.1 (78136) - https://sketchapp.com -->
    <title>fb</title>
    <desc>Created with Sketch.</desc>
    <g id="新" stroke="none" stroke-width="1" fill="none" fill-rule="evenodd">
        <g id="4-1我的" transform="translate(-592.000000, -529.000000)" fill-rule="nonzero">
            <g id="fb" transform="translate(592.000000, 529.000000)">
                <path d="M31.1568627,9.24362999 L13.6960784,28.0484377 C13.3333333,28.418029 13.3333333,28.7876204 13.3333333,29.1522838 L13.3333333,37.2685098 C13.3333333,38.0076925 13.6960784,38.7468752 14.4215686,39.1115386 C15.1470588,39.4762021 15.877451,39.1115386 16.2401961,38.7419473 L20.6078431,34.311779 L29.3333333,40.2104569 C29.6960784,40.5800483 30.0637255,40.5800483 30.4215686,40.5800483 L31.1519608,40.5800483 C31.8823529,40.2104569 32.2401961,39.8408656 32.2401961,39.1016829 L39.5147059,2.22632229 C39.5147059,1.68442863 39.5147059,1.23199234 39.4300134,0.867862894 C39.3709484,0.613916591 36.6132315,3.40583896 31.1568627,9.24362999 Z" id="路径" fill="#6078F8"></path>
                <path d="M13.3864318,28.5723448 C13.3333333,28.7665456 13.3333333,28.9600991 13.3333333,29.1522838 L13.3333333,37.2685098 C13.3333333,38.0076925 13.6960784,38.7468752 14.4215686,39.1115386 C15.1470588,39.4762021 15.877451,39.1115386 16.2401961,38.7419473 L20.6078431,34.311779 C15.8253381,30.3692975 13.418201,28.4561527 13.3864318,28.5723448 Z" id="路径备份" fill="#5365C9"></path>
                <path d="M39.1068502,0.262300611 C38.4420046,-0.137301428 37.9747141,-0.0337540901 37.4558824,0.262300611 L1.08823529,18.7073727 C0.357843137,18.7073727 -1.77635684e-14,19.4465554 -1.77635684e-14,20.1857381 C-1.77635684e-14,20.9249208 0.362745098,21.6641035 0.730392157,21.6641035 L9.45588235,27.1981179 C10.1862745,27.5677093 10.9117647,27.5677093 11.6372549,26.8285266 L30.5873612,9.76108045 L38.892591,2.03887333 C39.0890854,1.81825322 39.7716958,0.66190265 39.1068502,0.262300611 Z" id="路径" fill="#C2CBF0"></path>
            </g>
        </g>
    </g>
</svg>