<?xml version="1.0" encoding="UTF-8"?>
<svg width="14px" height="14px" viewBox="0 0 14 14" version="1.1" xmlns="http://www.w3.org/2000/svg" xmlns:xlink="http://www.w3.org/1999/xlink">
    <!-- Generator: Sketch 55.1 (78136) - https://sketchapp.com -->
    <title>glgn</title>
    <desc>Created with Sketch.</desc>
    <g id="页面1" stroke="none" stroke-width="1" fill="none" fill-rule="evenodd">
        <g id="B-17-租户" transform="translate(-991.000000, -222.000000)">
            <g id="glgn" transform="translate(990.000000, 221.000000)">
                <rect id="矩形" x="0" y="0" width="16" height="16"></rect>
                <path d="M6.1942029,7.41666666 L2.15426731,7.41666666 C1.51942029,7.41666666 1,6.89166666 1,6.25 L1,2.16666666 C1,1.525 1.51942029,1 2.15426731,1 L6.1942029,1 C6.82904991,1 7.3484702,1.525 7.3484702,2.16666666 L7.3484702,6.25 C7.3484702,6.89166666 6.82904991,7.41666666 6.1942029,7.41666666 Z M6.23743961,6.25 L6.23743961,6.83333334 L6.23743961,6.25 Z M2.15426731,2.16666666 L2.15426731,6.25 L6.1942029,6.25 L6.1942029,2.16666666 L2.15426731,2.16666666 Z M6.1942029,15 L2.15426731,15 C1.51942029,15 1,14.475 1,13.8333333 L1,9.75 C1,9.10833334 1.51942029,8.58333334 2.15426731,8.58333334 L6.1942029,8.58333334 C6.82904991,8.58333334 7.3484702,9.10833334 7.3484702,9.75 L7.3484702,13.8333333 C7.3484702,14.475 6.82904991,15 6.1942029,15 Z M6.23743961,13.8333333 L6.23743961,14.4166667 L6.23743961,13.8333333 Z M2.15426731,9.75 L2.15426731,13.8333333 L6.1942029,13.8333333 L6.1942029,9.75 L2.15426731,9.75 Z M13.8412238,15 L9.80128825,15 C9.16644123,15 8.64702093,14.475 8.64702093,13.8333333 L8.64702093,9.75 C8.64702093,9.10833334 9.16644122,8.58333334 9.80128825,8.58333334 L13.8412238,8.58333334 C14.4760708,8.58333334 14.9954911,9.10833334 14.9954911,9.75 L14.9954911,13.8333333 C14.9954911,14.475 14.4760709,15 13.8412238,15 L13.8412238,15 Z M13.8844605,13.8333333 L13.8844605,14.4166667 L13.8844605,13.8333333 Z M9.80128825,9.75 L9.80128825,13.8333333 L13.8412238,13.8333333 L13.8412238,9.75 L9.80128825,9.75 Z M10.8112721,4.20833334 C10.8112721,4.7076908 11.211779,5.11250001 11.7058293,5.11250001 C12.1998796,5.11250001 12.6003865,4.7076908 12.6003865,4.20833334 C12.6003865,3.70897587 12.1998796,3.30416667 11.7058293,3.30416667 C11.211779,3.30416667 10.8112721,3.70897587 10.8112721,4.20833334 Z M10.7535588,7.41666667 C10.6092754,7.41666667 10.4938486,7.3875 10.3495652,7.3 L9.83014493,6.97916666 C9.48386473,6.74583332 9.33958132,6.25 9.5415781,5.87083334 L9.77243156,5.4625 C9.74357488,5.43333334 9.71471819,5.375 9.7147182,5.34583334 L9.31072464,5.34583334 C8.8778744,5.34583334 8.5315942,4.96666668 8.5315942,4.52916666 L8.5315942,3.8875 C8.5315942,3.45 8.8778744,3.07083334 9.31072464,3.07083334 L9.7147182,3.07083334 C9.74357488,3.04166668 9.77243157,2.98333334 9.77243156,2.95416666 L9.5415781,2.54583334 C9.33958133,2.16666668 9.45500806,1.67083334 9.83014493,1.4375 L10.3495652,1.11666666 C10.5227053,0.999999994 10.7247021,0.970833323 10.9266989,1.02916666 C11.1286957,1.0875 11.3018357,1.23333332 11.4172625,1.40833334 L11.6192593,1.7875 L11.734686,1.7875 L11.9655395,1.40833334 C12.0809662,1.20416668 12.2541063,1.0875 12.4561031,1.02916666 C12.6580998,0.970833323 12.8600966,0.999999994 13.0332367,1.11666666 L13.552657,1.4375 C13.8989372,1.67083334 14.0432206,2.16666666 13.8412238,2.54583334 L13.6103704,2.95416666 C13.6392271,2.98333332 13.6680837,3.04166666 13.6680837,3.07083334 L14.0720773,3.07083334 C14.5049275,3.07083334 14.8512077,3.45 14.8512077,3.8875 L14.8512077,4.52916666 C14.8512077,4.96666666 14.5049275,5.34583332 14.0720773,5.34583334 L13.6680837,5.34583334 C13.6392271,5.375 13.6103704,5.43333334 13.6103704,5.4625 L13.8412238,5.87083334 C14.0432206,6.25 13.9277939,6.74583334 13.552657,6.97916666 L13.0332367,7.3 C12.8600966,7.41666667 12.6580998,7.44583334 12.4561031,7.3875 C12.2541063,7.32916666 12.0809662,7.18333334 11.9655395,7.00833334 L11.7635427,6.62916666 L11.6481159,6.62916666 L11.4461192,7.00833334 C11.3306924,7.2125 11.1575523,7.32916668 10.9555556,7.3875 C10.8978422,7.41666667 10.8112721,7.41666667 10.7535588,7.41666667 L10.7535588,7.41666667 Z M9.28186796,3.65416666 C9.16644123,3.65416666 9.07987117,3.77083332 9.07987117,3.8875 L9.07987117,4.52916666 C9.07987117,4.64583332 9.16644122,4.7625 9.28186796,4.7625 L10.0609984,4.7625 L10.1475684,4.9375 C10.2052818,5.05416666 10.2629952,5.17083334 10.3495652,5.2875 L10.4649919,5.43333334 L10.0898551,6.1625 C10.0321417,6.27916666 10.0609984,6.425 10.1764251,6.48333334 L10.6958454,6.80416666 C10.7247021,6.83333334 10.7535588,6.83333334 10.8112721,6.83333334 C10.8689855,6.83333334 10.8978422,6.775 10.9266989,6.71666666 L11.3306924,5.9875 L11.5326892,6.01666666 L11.9078261,6.01666666 L12.1098229,5.9875 L12.5138164,6.71666666 C12.5426731,6.775 12.5715298,6.80416666 12.6292432,6.83333334 C12.6580998,6.83333334 12.7158132,6.83333334 12.7735266,6.80416666 L13.2929469,6.48333334 C13.3795169,6.425 13.4372303,6.27916667 13.3795169,6.1625 L13.00438,5.43333334 L13.1198068,5.2875 C13.2063768,5.17083334 13.2640902,5.05416666 13.3218035,4.9375 L13.4083736,4.7625 L14.187504,4.7625 C14.3029307,4.7625 14.3895008,4.64583334 14.3895008,4.52916666 L14.3895008,3.8875 C14.3895008,3.77083334 14.3029308,3.65416666 14.187504,3.65416666 L13.4083736,3.65416666 L13.3218035,3.47916666 C13.2640902,3.3625 13.2063768,3.24583332 13.1198068,3.12916666 L13.00438,2.98333334 L13.3795169,2.25416666 C13.4372303,2.1375 13.4083736,1.99166666 13.2929469,1.93333334 L12.7735266,1.6125 C12.6580998,1.58333334 12.6292432,1.58333334 12.6003865,1.58333334 C12.5426731,1.58333334 12.5138164,1.64166667 12.4849597,1.7 L12.0809662,2.42916666 L11.8789694,2.4 L11.5038325,2.4 L11.3018357,2.42916666 L10.8978422,1.7 C10.8978422,1.64166666 10.8401288,1.6125 10.8112721,1.58333334 C10.7824155,1.58333334 10.7247021,1.58333334 10.6669887,1.6125 L10.1475684,1.93333334 C10.0609984,1.99166667 10.003285,2.1375 10.0609984,2.25416666 L10.4361353,2.98333334 L10.3207085,3.12916666 C10.2341385,3.24583332 10.1764251,3.3625 10.1187118,3.47916666 L10.0321417,3.65416666 L9.28186796,3.65416666 L9.28186796,3.65416666 Z" id="形状" fill="#5ABECF" fill-rule="nonzero"></path>
            </g>
        </g>
    </g>
</svg>