<?xml version="1.0" encoding="UTF-8"?>
<svg width="16px" height="16px" viewBox="0 0 16 16" version="1.1" xmlns="http://www.w3.org/2000/svg" xmlns:xlink="http://www.w3.org/1999/xlink">
    <!-- Generator: Sketch 55.1 (78136) - https://sketchapp.com -->
    <title>glljzfc</title>
    <desc>Created with Sketch.</desc>
    <g id="页面1" stroke="none" stroke-width="1" fill="none" fill-rule="evenodd">
        <g id="B-17-租户" transform="translate(-814.000000, -221.000000)" fill="#FF6B48" fill-rule="nonzero">
            <g id="glljzfc" transform="translate(814.000000, 221.000000)">
                <path d="M6.94402688,15.7719582 L0.890215223,15.7719582 C0.566283195,15.7719582 0.304305381,15.5099804 0.304305381,15.1860483 L0.304305381,0.975522024 C0.304305381,0.651589996 0.566283195,0.389612182 0.890215223,0.389612182 L13.9590139,0.389612182 C14.2829459,0.389612182 14.5449237,0.651589996 14.5449237,0.975522024 L14.5449237,7.20988596 C14.5449237,7.53381799 14.2829459,7.7957958 13.9590139,7.7957958 C13.6350819,7.7957958 13.3731041,7.53381799 13.3731041,7.20988596 L13.3731041,1.55966175 L1.47612506,1.55966175 L1.47612506,14.6001385 L6.94402688,14.6001385 C7.26795891,14.6001385 7.52993672,14.8621163 7.52993672,15.1860483 C7.52993672,15.5099804 7.26795891,15.7719582 6.94402688,15.7719582 Z M6.94402688,8.4560507 L2.38065657,8.4560507 C2.05672455,8.4560507 1.79474673,8.19407289 1.79474673,7.87014086 C1.79474673,7.54620883 2.05672455,7.28423102 2.38065657,7.28423102 L6.94402688,7.28423102 C7.26795891,7.28423102 7.52993672,7.54620883 7.52993672,7.87014086 C7.52993672,8.19407289 7.26795891,8.4560507 6.94402688,8.4560507 Z M7.2237059,11.1023807 L2.38065657,11.1023807 C2.05672455,11.1023807 1.79474673,10.8404028 1.79474673,10.5164708 C1.79474673,10.1925388 2.05672455,9.93056097 2.38065657,9.93056097 L7.2237059,9.93056097 C7.54763793,9.93056097 7.80961574,10.1925388 7.80961574,10.5164708 C7.80961574,10.8404028 7.54586781,11.1023807 7.2237059,11.1023807 Z M5.96515032,3.91746208 L4.43222608,3.91746208 C4.25521404,3.91746208 4.14369646,3.92631268 4.09590321,3.94401388 C3.99677647,3.97764617 3.9472131,4.06261195 3.9472131,4.19537097 C3.9472131,4.30688856 3.99500635,4.39362445 4.08882273,4.45380855 C4.14015622,4.48921095 4.27999573,4.50514204 4.51011138,4.50514204 L5.02167616,4.50514204 C5.34914843,4.50514204 5.607586,4.57417673 5.798759,4.71224612 C6.00940333,4.86801671 6.11561055,5.09636224 6.11561055,5.3972827 C6.11561055,5.62562823 6.05188622,5.83450243 5.92089731,6.02567543 C5.82531081,6.17613567 5.71025299,6.27526241 5.57395372,6.32305566 C5.43765445,6.37084891 5.21107904,6.39386047 4.89068725,6.39386047 L3.09932544,6.39386047 L3.09932544,5.72121473 L4.64641064,5.72121473 C4.83581352,5.72121473 4.96503231,5.71944461 5.034067,5.71413425 C5.1898376,5.69643305 5.26772289,5.60792703 5.26772289,5.44861619 C5.26772289,5.31939741 5.2163894,5.23089139 5.1119523,5.18309814 C5.06061881,5.15654633 4.93494026,5.14415549 4.73668678,5.14415549 L4.21273115,5.14415549 C4.00562707,5.14415549 3.84631624,5.13176465 3.73656877,5.10521284 C3.62682131,5.07866104 3.52415433,5.03263791 3.42856783,4.96360321 C3.31173989,4.88217768 3.21969363,4.76888997 3.15419917,4.6237401 C3.0869346,4.47859023 3.05330231,4.32458976 3.05330231,4.16173869 C3.05330231,3.84665726 3.16836014,3.59707029 3.39670566,3.41120765 C3.53477505,3.29969007 3.7737413,3.24304622 4.11537453,3.24304622 L5.96515032,3.24304622 L5.96515032,3.91746208 Z M7.13697,2.08007713 L8.00432898,2.08007713 L8.00432898,3.24481634 L8.80619351,3.24481634 L8.80619351,3.91746208 L8.00432898,3.91746208 L8.00432898,5.06272995 C8.00432898,5.33001813 8.02734055,5.49817956 8.0751338,5.56721426 C8.14770873,5.66988124 8.27869764,5.72298485 8.46279016,5.72298485 L8.80619351,5.72298485 L8.80619351,6.39563059 L8.17780078,6.39563059 C7.80253526,6.39563059 7.53524708,6.30535445 7.37593625,6.12303205 C7.21662542,5.94070966 7.13697,5.63801907 7.13697,5.21142006 L7.13697,3.91746208 L6.58646257,3.91746208 L6.58646257,3.24481634 L7.13697,3.24481634 L7.13697,2.08007713 Z M10.8064295,3.24481634 C11.0701775,3.24481634 11.2737413,3.26251754 11.4188912,3.29969007 C11.564041,3.3368626 11.6826391,3.39704669 11.7782256,3.48378259 C11.8738121,3.57051848 11.9393066,3.67849583 11.9782492,3.80771461 C12.0171919,3.9369334 12.0366632,4.12279604 12.0366632,4.36353241 L12.0366632,4.66799311 L11.2011664,4.66799311 L11.2011664,4.49983168 C11.2011664,4.27502639 11.1622237,4.12279604 11.0843384,4.03960038 C11.0064531,3.95817484 10.857763,3.91746208 10.6382681,3.91746208 L10.3922214,3.91746208 L10.3922214,6.39563059 L9.52486238,6.39563059 L9.52486238,3.24481634 L10.8064295,3.24481634 Z M11.1020396,15.8374526 C8.78495206,15.8374526 6.89977387,13.9522744 6.89977387,11.6351869 C6.89977387,9.31809932 8.78495206,7.43292113 11.1020396,7.43292113 C13.4191272,7.43292113 15.3043054,9.31809932 15.3043054,11.6351869 C15.3043054,13.9522744 13.4191272,15.8374526 11.1020396,15.8374526 Z M7.77775358,11.6351869 C7.77775358,13.4672615 9.26819493,14.9594729 11.1020396,14.9594729 C12.9358843,14.9594729 14.4263257,13.4672615 14.4263257,11.6351869 C14.4263257,9.8031123 12.9341142,8.31090083 11.1020396,8.31090083 C9.26996505,8.31090083 7.77775358,9.8031123 7.77775358,11.6351869 Z" id="形状"></path>
                <path d="M12.1020396,10.7439075 C12.1020396,10.1452635 11.6539322,9.660395 11.1020396,9.660395 C10.5501471,9.660395 10.1020396,10.1452635 10.1020396,10.7439075 C10.1020396,11.2433287 10.4146159,11.6633717 10.8389139,11.7883924 L10.8389139,13.3891861 C10.8389139,13.5380203 10.951246,13.660395 11.0892191,13.660395 C11.2265818,13.660395 11.3395244,13.5386818 11.3395244,13.3891861 L11.3395244,12.8474299 L11.6154706,12.8474299 C11.7528333,12.8474299 11.8657759,12.7257166 11.8657759,12.576221 C11.8657759,12.4273869 11.7534438,12.3050122 11.6154706,12.3050122 L11.3395244,12.3050122 L11.3395244,11.7950072 C11.7766428,11.6799088 12.1020396,11.2539124 12.1020396,10.7439075 Z M11.1020396,10.2021512 C11.3779859,10.2021512 11.6020396,10.4449163 11.6020396,10.7439075 C11.6020396,11.0428987 11.3779859,11.2856637 11.1020396,11.2856637 C10.8260934,11.2856637 10.6020396,11.0422372 10.6020396,10.7439075 C10.6020396,10.4449163 10.8260934,10.2021512 11.1020396,10.2021512 Z" id="形状"></path>
            </g>
        </g>
    </g>
</svg>