<?xml version="1.0" encoding="UTF-8"?>
<svg width="24px" height="24px" viewBox="0 0 24 24" version="1.1" xmlns="http://www.w3.org/2000/svg" xmlns:xlink="http://www.w3.org/1999/xlink">
    <!-- Generator: Sketch 55.1 (78136) - https://sketchapp.com -->
    <title>huiyuan2</title>
    <desc>Created with Sketch.</desc>
    <g id="页面1" stroke="none" stroke-width="1" fill="none" fill-rule="evenodd">
        <g id="huiyuan2" transform="translate(1.000000, 1.000000)" fill="#FFFFFF" fill-rule="nonzero">
            <path d="M10.9853887,1.94104167 L19.5306907,7.129375 L10.9853887,12.3177083 L2.44008668,7.129375 L10.9853887,1.94104167 L10.9853887,1.94104167 Z M10.9853887,0.0038194349 C10.7639122,0.0038194349 10.5424357,0.0649305365 10.3455677,0.181041667 L0.619057616,6.0904861 C0.252361834,6.31137182 0.0284104523,6.7064383 0.0284104523,7.13243055 C0.0284104523,7.5584228 0.252361834,7.95348928 0.619057616,8.174375 L10.3455677,14.0777083 C10.5424357,14.1999306 10.7639122,14.2549306 10.9853887,14.2549306 C11.2068652,14.2549306 11.4283417,14.1938195 11.6252097,14.0777083 L21.3517198,8.174375 C21.7184156,7.95348928 21.942367,7.5584228 21.942367,7.13243055 C21.942367,6.7064383 21.7184156,6.31137182 21.3517198,6.0904861 L11.6313618,0.181041667 C11.4360673,0.0651814668 11.2128625,0.0038194349 10.9853887,0.0038194349 Z" id="形状"></path>
            <path d="M11.0099972,21.8632639 C6.85116053,21.8632639 3.46749161,18.5021528 3.46749161,14.3710417 L3.46749161,9.73881943 L5.31312919,9.73881943 L5.31312919,14.3710417 C5.31312919,17.4938194 7.87241332,20.0299306 11.0099972,20.0299306 C12.1542925,20.0299306 13.2555229,19.6938195 14.1967981,19.064375 L15.2303551,20.5799306 C13.9814737,21.4171528 12.52342,21.8632639 11.0099972,21.8632639 Z M16.7068652,9.73270833 L18.5525028,9.73270833 L18.5525028,13.6377083 L16.7068652,13.6377083 L16.7068652,9.73270833 Z M21.0748742,12.8127083 C20.5642478,12.8127083 20.1520554,12.4032639 20.1520554,11.8960417 L20.1520554,7.00715277 C20.1520554,6.49993054 20.5642478,6.0904861 21.0748742,6.0904861 C21.5855006,6.0904861 21.997693,6.49993054 21.997693,7.00715277 L21.997693,11.8960417 C21.997693,12.4032639 21.5855006,12.8127083 21.0748742,12.8127083 Z" id="形状"></path>
            <path d="M17.383599,21.8815972 C14.8366191,21.8815972 12.769505,19.8282639 12.769505,17.2982639 C12.769505,14.7682639 14.8366191,12.7149306 17.383599,12.7149306 C19.9305789,12.7149306 21.997693,14.7682639 21.997693,17.2982639 C21.997693,19.8282639 19.9305789,21.8815972 17.383599,21.8815972 Z M17.383599,14.5482639 C15.8578719,14.5482639 14.6151426,15.7827083 14.6151426,17.2982639 C14.6151426,18.8138195 15.8578719,20.0482639 17.383599,20.0482639 C18.9093261,20.0482639 20.1520554,18.8138195 20.1520554,17.2982639 C20.1520554,15.7827083 18.9154782,14.5482639 17.383599,14.5482639 Z" id="形状"></path>
            <path d="M18.756,16.548 C18.7533333,16.6786673 18.6653342,17.0013308 18.492,17.516 C18.3053324,18.0680028 18.1093344,18.4679988 17.904,18.716 C17.7466659,18.9053343 17.5893341,19 17.432,19 C17.2479991,19 17.0480011,18.8560014 16.832,18.568 C16.5999988,18.2586651 16.4106674,17.8800022 16.264,17.432 C16.1279993,17.0186646 16.06,16.7146676 16.06,16.52 C16.06,16.4079994 16.1066662,16.352 16.2,16.352 C16.2960005,16.352 16.3559999,16.4053328 16.38,16.512 C16.5293341,17.1973368 16.7213322,17.7426646 16.956,18.148 C17.1586677,18.4946684 17.326666,18.668 17.46,18.668 C17.5453338,18.668 17.6746658,18.5120016 17.848,18.2 C18.1200014,17.7119976 18.3173327,17.1560031 18.44,16.532 C18.4613334,16.4173328 18.509333,16.36 18.584,16.36 C18.7013339,16.36 18.7586667,16.422666 18.756,16.548 Z" id="V" stroke="#FFFFFF" stroke-width="0.8"></path>
        </g>
    </g>
</svg>