<?xml version="1.0" encoding="UTF-8"?>
<svg width="22px" height="16px" viewBox="0 0 22 16" version="1.1" xmlns="http://www.w3.org/2000/svg" xmlns:xlink="http://www.w3.org/1999/xlink">
    <!-- Generator: Sketch 55.1 (78136) - https://sketchapp.com -->
    <title>身份_ico_wx</title>
    <desc>Created with Sketch.</desc>
    <g id="页面1" stroke="none" stroke-width="1" fill="none" fill-rule="evenodd">
        <g id="身份_ico_wx" transform="translate(0.000000, -3.000000)" fill-rule="nonzero">
            <rect id="矩形" fill="#000000" opacity="0" x="0" y="0" width="22" height="22"></rect>
            <path d="M20.3076923,3 L1.69230768,3 C0.757671961,3 0,3.7163444 0,4.59999998 L0,17.4 C0,18.2836556 0.757671961,19 1.69230768,19 L20.3076923,19 C21.242328,19 22,18.2836556 22,17.4 L22,4.59999998 C22,3.7163444 21.242328,3 20.3076923,3 L20.3076923,3 Z M1.69230768,4.59999998 L20.3076923,4.59999998 L20.3076923,17.4 L1.69230768,17.4 L1.69230768,4.59999998 Z" id="形状" fill="#9FA4BB"></path>
            <path d="M13.5264,6.9884 C15.128,6.9884 16.2188,7.64559999 16.7572,8.76639999 C17.1132,9.50759998 17.182,10.3464 17.0824,11.0732 C16.9904,11.7512 16.7384,12.418 16.3424,12.966 L16.3212,12.994 L18.356,14.7596 C18.600662,14.9719336 18.7504151,15.2731677 18.772,15.5964 L18.7752082,15.6772 L18.7752082,17.3884 C18.7771314,17.8199318 18.4364567,18.1752257 18.0052244,18.1914172 C17.5739921,18.2076086 17.2076338,17.8788617 17.1772,17.4484 L17.1752,17.3884 L17.1748,15.8532 L14.6368,13.6508 C14.4628652,13.4999455 14.3623577,13.2814658 14.3609791,13.0512301 C14.3596004,12.8209944 14.4574843,12.6013267 14.6296,12.4484 L14.6804,12.4068 C15.1092,12.0848 15.4124,11.4812 15.4972,10.8572 C15.558,10.4128 15.5136,9.8732 15.3148,9.45879999 C15.0484,8.90399998 14.5244,8.58839998 13.5264,8.58840001 C12.5496,8.58840001 12.0496,8.91160002 11.7944,9.49200001 C11.608,9.9152 11.5716,10.4204 11.6192,10.8832 C11.6668,11.342 11.9768,12.0044 12.3444,12.3344 L12.4096,12.3888 C12.590072,12.5282407 12.7024505,12.7380789 12.7184932,12.9655795 C12.7345359,13.19308 12.6527174,13.4166124 12.4936,13.58 L12.446,13.6248 L9.89160001,15.852 L9.89160001,17.3884 C9.8917325,17.8070499 9.56907081,18.1550013 9.15159999,18.1864 L9.09159999,18.1884 C8.67310394,18.1883232 8.32538719,17.8657174 8.294,17.4484 L8.29200001,17.3884 L8.29200001,15.6764 C8.29200001,15.3524 8.42160001,15.0432 8.64960001,14.816 L8.70879999,14.7608 L10.7768,12.9576 L10.7688,12.9464 C10.384,12.4 10.1228,11.7384 10.0408,11.1556 L10.0276,11.0472 C9.95399998,10.3332 10.0084,9.57760002 10.3296,8.84760001 C10.8416,7.68360001 11.9176,6.9884 13.526,6.9884 L13.5264,6.9884 Z" id="路径" fill="#9FA4BB"></path>
            <path d="M8.6,6.60000001 L8.6,7.4 C8.6,7.8418278 8.2418278,8.19999999 7.80000001,8.19999999 L3.8,8.19999999 C3.3581722,8.19999999 3.00000001,7.8418278 3.00000001,7.4 L3.00000001,6.60000001 L8.6,6.60000001 L8.6,6.60000001 Z" id="路径" fill="#9FA4BB"></path>
        </g>
    </g>
</svg>