<?xml version="1.0" encoding="UTF-8"?>
<svg width="24px" height="24px" viewBox="0 0 24 24" version="1.1" xmlns="http://www.w3.org/2000/svg" xmlns:xlink="http://www.w3.org/1999/xlink">
    <!-- Generator: Sketch 55.1 (78136) - https://sketchapp.com -->
    <title>liaotian2</title>
    <desc>Created with Sketch.</desc>
    <g id="页面1" stroke="none" stroke-width="1" fill="none" fill-rule="evenodd">
        <g id="liaotian2" transform="translate(1.000000, 1.000000)" fill="#FFFFFF" fill-rule="nonzero">
            <path d="M10.9482021,21.9787092 C10.7096176,21.9787092 10.4647546,21.8858038 10.282677,21.7061867 L7.23130709,18.6960515 L3.4641838,18.6960515 C1.55846928,18.6926427 0.0144429638,17.1694816 0.0109874331,15.28952 L0.0109874331,3.43479027 C0.0109874331,1.55810108 1.56178651,0.0282587178 3.4641838,0.0282587178 L18.4259418,0.0282587178 C20.328339,0.0282587178 21.8791381,1.55810105 21.8791381,3.43479027 L21.8791381,15.2957137 C21.8791381,17.1724029 20.328339,18.7022452 18.4259418,18.7022452 L14.6588185,18.7022452 L11.6074486,21.7123803 C11.4316496,21.8919975 11.1867865,21.9787092 10.9482021,21.9787092 Z M3.4641838,1.88636683 C3.04789079,1.88636683 2.64864805,2.04950382 2.35428443,2.33988954 C2.05992082,2.63027527 1.89454908,3.02412284 1.89454908,3.43479027 L1.89454908,15.2957137 C1.89454908,15.7063811 2.05992083,16.1002287 2.35428445,16.3906144 C2.64864806,16.6810001 3.04789079,16.8441371 3.4641838,16.8441371 L7.62057647,16.8441371 C7.87171802,16.8441371 8.1103025,16.9432362 8.28610161,17.1166596 L10.9482021,19.7365921 L13.6103025,17.1104659 C13.7861016,16.9370425 14.0246861,16.8379434 14.2758276,16.8379434 L18.4322203,16.8379434 C18.8485133,16.8379434 19.2477561,16.6748064 19.5421197,16.3844207 C19.8364833,16.094035 20.001855,15.7001874 20.001855,15.28952 L20.001855,3.43479027 C20.001855,3.02412284 19.8364833,2.63027527 19.5421197,2.33988954 C19.2477561,2.04950382 18.8485133,1.88636683 18.4322203,1.88636683 L3.4641838,1.88636683 Z" id="形状"></path>
            <path d="M10.9482021,15.0913377 C9.10859017,15.0913377 7.26897832,14.3976281 5.86886415,13.0164344 C5.49843035,12.6510065 5.49843035,12.0626056 5.86886415,11.7033713 C6.23929795,11.3441371 6.83575911,11.3379434 7.19991438,11.7033713 C9.26555366,13.7410966 12.6308504,13.7410966 14.7027683,11.7033713 C15.0732021,11.3379434 15.6696632,11.3379434 16.0338185,11.7033713 C16.3979738,12.0687993 16.4042523,12.6572002 16.0338185,13.0164344 C14.6863113,14.348504 12.8558486,15.0953169 10.9482021,15.0913377 L10.9482021,15.0913377 Z" id="路径"></path>
        </g>
    </g>
</svg>