<?xml version="1.0" encoding="UTF-8"?>
<svg width="16px" height="19px" viewBox="0 0 16 19" version="1.1" xmlns="http://www.w3.org/2000/svg" xmlns:xlink="http://www.w3.org/1999/xlink">
    <!-- Generator: Sketch 55.1 (78136) - https://sketchapp.com -->
    <title>mima</title>
    <desc>Created with Sketch.</desc>
    <g id="页面1" stroke="none" stroke-width="1" fill="none" fill-rule="evenodd">
        <g id="B-0登陆" transform="translate(-834.000000, -408.000000)">
            <g id="mima" transform="translate(832.000000, 408.000000)">
                <g id="Icon-24px">
                    <polygon id="Shape" points="0 0 20 0 20 20 0 20"></polygon>
                    <path d="M14.1809194,6.66666667 L14.1809194,5 C14.1809194,2.7 12.3119631,0.833333333 10.0091418,0.833333333 C7.70632057,0.833333333 5.8373642,2.7 5.8373642,5 L5.8373642,6.66666667 L4.21591398,6.66666667 C3.29812291,6.66666667 2.54720293,7.41666667 2.54720293,8.33333333 L2.54720293,16.6666667 C2.54720293,17.5833333 3.29812291,18.3333333 4.21591398,18.3333333 L15.8784919,18.3333333 C16.796283,18.3333333 17.5472029,17.5833333 17.5472029,16.6666667 L17.5472029,8.33333333 C17.5472029,7.41666667 16.796283,6.66666667 15.8784919,6.66666667 L14.1809194,6.66666667 Z M8.34043077,12.5 C8.34043077,11.5833333 9.09135074,10.8333333 10.0091418,10.8333333 C10.9269329,10.8333333 11.6778529,11.5833333 11.6778529,12.5 C11.6778529,13.4166667 10.9269329,14.1666667 10.0091418,14.1666667 C9.09135074,14.1666667 8.34043077,13.4166667 8.34043077,12.5 Z M7.42263969,6.66666667 L7.42263969,5 C7.42263969,3.575 8.58239387,2.41666667 10.0091418,2.41666667 C11.4358898,2.41666667 12.5956439,3.575 12.5956439,5 L12.5956439,6.66666667 L7.42263969,6.66666667 Z" id="Shape" fill="#A2A5BD"></path>
                </g>
            </g>
        </g>
    </g>
</svg>