<?xml version="1.0" encoding="UTF-8"?>
<svg width="24px" height="24px" viewBox="0 0 24 24" version="1.1" xmlns="http://www.w3.org/2000/svg" xmlns:xlink="http://www.w3.org/1999/xlink">
    <!-- Generator: Sketch 55.1 (78136) - https://sketchapp.com -->
    <title>pingtai2</title>
    <desc>Created with Sketch.</desc>
    <g id="页面1" stroke="none" stroke-width="1" fill="none" fill-rule="evenodd">
        <g id="pingtai2" transform="translate(0.000000, 2.000000)" fill="#FFFFFF" fill-rule="nonzero">
            <path d="M14.4367187,18.0002332 C14.1992187,18.0002332 13.9554687,17.9069496 13.7742187,17.7266014 L10.0742188,14.0450093 C9.70546875,13.6780939 9.70546875,13.0872979 10.0742188,12.7266014 C10.4429688,12.3659048 11.0367187,12.3596859 11.3992187,12.7266014 L15.0992188,16.4081934 C15.4679688,16.7751089 15.4679688,17.3659049 15.0992188,17.7266014 C14.9117188,17.9069496 14.6742187,18.0002332 14.4367187,18.0002332 L14.4367187,18.0002332 Z M17.1242188,15.3261039 C16.8867188,15.3261039 16.6429688,15.2328203 16.4617187,15.052472 L14.1742187,12.7763526 C13.8054687,12.4094372 13.8054687,11.8186412 14.1742187,11.4579446 C14.5429688,11.0972481 15.1367187,11.0910292 15.4992188,11.4579446 L17.7867188,13.734064 C18.1554688,14.1009795 18.1554688,14.6917755 17.7867188,15.052472 C17.5992188,15.2328203 17.3617187,15.3261039 17.1242188,15.3261039 Z" id="形状"></path>
            <path d="M11.9992187,19.8721305 C11.3929687,19.8721305 10.8242187,19.6358053 10.3929688,19.2129198 L0.69296874,9.56117849 C0.266801856,9.13864301 0.0272557096,8.56465416 0.0272557096,7.96602924 C0.0272557096,7.36740432 0.266801856,6.79341547 0.69296874,6.37087998 L6.42421875,0.674362552 C6.85546875,0.251476971 7.42421874,0.0151585821 8.03046876,0.0151585821 C8.63671875,0.0151585821 9.20546877,0.251477 9.63671874,0.680581477 L12.6617188,3.69675061 C13.0242187,4.06366604 13.0492188,4.67311876 12.6804688,5.0338153 L10.9679687,6.73779539 C10.8679687,6.83729787 10.8554687,6.95545709 10.8554687,7.01764613 C10.8554687,7.07983518 10.8679687,7.1979944 10.9679687,7.29749688 L12.0929687,8.41068097 C12.2492187,8.5599347 12.4929687,8.5599347 12.6492187,8.41068097 L14.3679688,6.70670088 C14.7367188,6.34600437 15.3304687,6.34600437 15.6929687,6.70670088 L20.2742188,11.2651586 C20.6429688,11.632074 20.6429688,12.22287 20.2742188,12.5835666 L13.5992188,19.2129198 C13.1756313,19.6362547 12.5995797,19.8735894 11.9992187,19.8721305 L11.9992187,19.8721305 Z M8.03046876,1.8745409 C7.96796877,1.8745409 7.84921875,1.88704915 7.74921876,1.98655163 L2.01796875,7.68306903 C1.86171876,7.83854166 1.86171876,8.0872979 2.01796875,8.23655163 L11.7179687,17.8882929 C11.8742187,18.0437655 12.1242187,18.0437655 12.2742187,17.8882929 L18.2804687,11.9119248 L15.0242188,8.671875 L13.9679687,9.71665112 C13.0808088,10.5933452 11.6488786,10.5933452 10.7617187,9.71665112 L9.63671874,8.60346703 C9.20546874,8.18058145 8.96796873,7.60844216 8.96796876,7.00520834 C8.96796876,6.40197452 9.20546877,5.8360541 9.63046875,5.40694963 L10.6804688,4.36217351 L8.29296876,1.98655163 C8.22572935,1.9133977 8.13007916,1.87260871 8.03046876,1.8745409 L8.03046876,1.8745409 Z" id="形状"></path>
            <path d="M19.6054687,12.8509795 C19.3679687,12.8509795 19.1242187,12.7576959 18.9429688,12.5773476 L15.0242188,8.6780939 L13.9679688,9.72287002 C13.0808088,10.5995641 11.6488786,10.5995641 10.7617187,9.72287002 L9.63671874,8.60968595 C9.20546874,8.18680037 8.96796876,7.61466109 8.96796876,7.01142724 C8.96796876,6.40819342 9.20546877,5.842273 9.63046875,5.41316852 L11.2492187,3.80247201 C11.2742187,3.76515858 11.3054687,3.73406405 11.3367188,3.70296954 L14.3867188,0.668143657 C15.2742188,-0.208722015 16.7117188,-0.214940911 17.5929688,0.668143657 L23.3179687,6.37087998 C23.7449649,6.79387748 23.9836144,7.36961126 23.9804994,7.96913867 C23.9804994,8.57237249 23.7429687,9.13829291 23.3117188,9.56739739 L20.2804687,12.5773476 C20.0929687,12.7639148 19.8617188,12.8509795 19.6054687,12.8509795 C19.6179688,12.8509795 19.6117187,12.8509795 19.6054687,12.8509795 Z M15.0242188,6.42685013 C15.2617188,6.42685013 15.5054688,6.52013372 15.6867187,6.70048196 L19.6179688,10.6121735 L21.9992188,8.24277052 C22.0992187,8.14326804 22.1117188,8.02510882 22.1117188,7.96291978 C22.1117188,7.90073073 22.0992187,7.78257151 21.9992188,7.68306903 L16.2742187,1.9803327 C16.2010671,1.90579958 16.1007935,1.86377743 15.9960937,1.86377743 C15.891394,1.86377743 15.7911204,1.90579958 15.7179688,1.9803327 L12.7679687,4.9156561 C12.7429687,4.95296954 12.7117187,4.98406407 12.6804688,5.01515858 L10.9679687,6.71913867 C10.8679688,6.81864115 10.8554687,6.93680037 10.8554687,6.99898942 C10.8554687,7.06117846 10.8679688,7.17933769 10.9679687,7.27884016 L12.0929687,8.39202425 C12.2492187,8.54127799 12.4929687,8.54127799 12.6492188,8.39202425 L14.3679688,6.68804416 C14.5492188,6.52013372 14.7867187,6.42685013 15.0242188,6.42685013 Z" id="形状"></path>
        </g>
    </g>
</svg>