<?xml version="1.0" encoding="UTF-8"?>
<svg width="14px" height="16px" viewBox="0 0 14 16" version="1.1" xmlns="http://www.w3.org/2000/svg" xmlns:xlink="http://www.w3.org/1999/xlink">
    <!-- Generator: Sketch 55.1 (78136) - https://sketchapp.com -->
    <title>qx</title>
    <desc>Created with Sketch.</desc>
    <g id="页面1" stroke="none" stroke-width="1" fill="none" fill-rule="evenodd">
        <g id="B-13-用户" transform="translate(-1096.000000, -221.000000)" fill-rule="nonzero">
            <g id="qx" transform="translate(1095.000000, 221.000000)">
                <rect id="矩形" fill="#000000" opacity="0" x="0" y="0" width="16" height="16"></rect>
                <path d="M14.7109375,8.4328125 L14.7109375,4.3625 C14.7109375,3.5578125 14.309375,2.921875 13.5484375,2.5234375 L13.509375,2.5046875 C10.0671875,0.990625 9.403125,0.6734375 9.2796875,0.609375 C8.915625,0.4171875 8.4921875,0.3203125 8.0203125,0.3203125 L7.9796875,0.3203125 C7.509375,0.3203125 7.0859375,0.4171875 6.721875,0.609375 C6.56875,0.6890625 5.8171875,1.0421875 2.4890625,2.50625 L2.45,2.525 C1.690625,2.9234375 1.2890625,3.559375 1.2890625,4.3625 L1.2890625,8.415625 C1.128125,11.4734375 2.921875,13.7671875 6.621875,15.234375 L6.7390625,15.2796875 L6.740625,15.2796875 C6.9671875,15.3671875 7.1953125,15.45 7.421875,15.528125 L7.9828125,15.68125 L8.54375,15.5296875 C8.7796875,15.4484375 9.003125,15.3671875 9.2203125,15.28125 L9.3453125,15.2359375 C13.0609375,13.765625 14.865625,11.4765625 14.7109375,8.4328125 Z M8.9875,14 L8.8578125,14.046875 C8.5828125,14.1578125 8.2953125,14.2625 7.9828125,14.3671875 C7.6890625,14.2703125 7.3921875,14.1625 7.096875,14.0453125 L7.0109375,14.0125 C4.153125,12.859375 2.6921875,11.2453125 2.56875,9.090625 L2.5703125,4.3625 C2.5703125,4.140625 2.625,3.884375 3.028125,3.6671875 C5.578125,2.5453125 7.0203125,1.896875 7.3171875,1.7421875 C7.4984375,1.646875 7.715625,1.6 7.9796875,1.6 L8.0203125,1.6 C8.28125,1.6 8.5046875,1.646875 8.684375,1.7421875 C9.0609375,1.9375 11.21875,2.8953125 12.971875,3.6671875 C13.375,3.884375 13.4296875,4.140625 13.4296875,4.3625 L13.4296875,8.45 L13.43125,8.484375 C13.5625,10.93125 12.1078125,12.7359375 8.9875,14 Z M10.559375,5.8359375 C10.559375,4.421875 9.4125,3.2765625 8,3.2765625 C6.5875,3.2765625 5.440625,4.421875 5.440625,5.8359375 C5.440625,7.015625 6.240625,8.0078125 7.3265625,8.303125 L7.3265625,12.084375 C7.3265625,12.4359375 7.6140625,12.725 7.9671875,12.725 C8.31875,12.725 8.6078125,12.4375 8.6078125,12.084375 L8.6078125,10.8046875 L9.3140625,10.8046875 C9.665625,10.8046875 9.9546875,10.5171875 9.9546875,10.1640625 C9.9546875,9.8125 9.6671875,9.5234375 9.3140625,9.5234375 L8.6078125,9.5234375 L8.6078125,8.31875 C9.7265625,8.046875 10.559375,7.040625 10.559375,5.8359375 Z M6.7203125,5.8359375 C6.7203125,5.1296875 7.29375,4.55625 8,4.55625 C8.70625,4.55625 9.2796875,5.1296875 9.2796875,5.8359375 C9.2796875,6.5421875 8.70625,7.115625 8,7.115625 C7.29375,7.115625 6.7203125,6.540625 6.7203125,5.8359375 L6.7203125,5.8359375 Z" id="形状" fill="#FF6B48"></path>
            </g>
        </g>
    </g>
</svg>