<?xml version="1.0" encoding="UTF-8"?>
<svg width="13px" height="14px" viewBox="0 0 13 14" version="1.1" xmlns="http://www.w3.org/2000/svg" xmlns:xlink="http://www.w3.org/1999/xlink">
    <!-- Generator: Sketch 55.1 (78136) - https://sketchapp.com -->
    <title>sc_13</title>
    <desc>Created with Sketch.</desc>
    <g id="页面1" stroke="none" stroke-width="1" fill="none" fill-rule="evenodd">
        <g id="B-13-用户" transform="translate(-1207.000000, -222.000000)" fill-rule="nonzero">
            <g id="sc_13" transform="translate(1206.000000, 221.000000)">
                <rect id="矩形" fill="#000000" opacity="0" x="0" y="0" width="16" height="16"></rect>
                <path d="M10.3146667,7.47733333 L10.3146667,11.5626667 C10.3146667,12.1493333 9.83466667,12.6293333 9.248,12.6293333 L9.248,8.544 C9.248,7.94666667 9.71733333,7.47733333 10.3146667,7.47733333 Z M6.90133333,8.544 L6.90133333,12.6293333 C6.31466666,12.6293333 5.83466667,12.1493333 5.83466667,11.5626667 L5.83466667,7.47733333 C6.42133334,7.47733333 6.90133333,7.94666666 6.90133333,8.544 Z" id="形状" fill="#6FC2D0"></path>
                <path d="M13.792,3.47733333 C13.7493333,3.18933333 13.4826667,2.98666666 13.1946667,3.01866667 L10.496,3.392 L10.2826667,1.94133333 C10.1973333,1.35466666 9.65333334,0.949333328 9.07733333,1.03466667 L5.17333333,1.6 L5.14133333,1.6 C4.576,1.68533333 4.192,2.19733333 4.26666667,2.76266667 L4.26666667,2.79466667 L4.46933333,4.224 L2.09066667,4.55466667 C1.80266667,4.59733334 1.6,4.864 1.632,5.152 C1.67466667,5.44 1.94133333,5.64266667 2.22933333,5.61066667 L2.95466667,5.51466667 L2.92266667,14.5066667 C2.92266667,14.752 3.12533334,14.9546667 3.37066667,14.9546667 L12.7253333,14.9546667 C12.9706667,14.9546667 13.1733333,14.752 13.1733333,14.5066667 L13.2053333,5.10933333 C12.5866667,5.10933333 12.0853333,5.61066666 12.0853333,6.22933333 L12.064,13.824 L4.05333333,13.824 L4.07466667,6.22933333 C4.07466667,5.89866666 3.936,5.61066666 3.712,5.39733333 L13.3333333,4.08533333 C13.6213333,4.04266666 13.8346667,3.776 13.792,3.47733333 Z M5.52533333,4.096 L5.32266667,2.656 L9.22666667,2.10133333 L9.42933333,3.552 L5.52533333,4.096 Z" id="形状" fill="#5ABECF"></path>
            </g>
        </g>
    </g>
</svg>