<?xml version="1.0" encoding="UTF-8"?>
<svg width="17px" height="17px" viewBox="0 0 17 17" version="1.1" xmlns="http://www.w3.org/2000/svg" xmlns:xlink="http://www.w3.org/1999/xlink">
    <!-- Generator: Sketch 55.1 (78136) - https://sketchapp.com -->
    <title>shanchu</title>
    <desc>Created with Sketch.</desc>
    <g id="页面1" stroke="none" stroke-width="1" fill="none" fill-rule="evenodd">
        <g id="B-5-发新帖2" transform="translate(-497.000000, -440.000000)" fill-rule="nonzero">
            <g id="编组-5备份" transform="translate(403.000000, 178.000000)">
                <g id="shanchu" transform="translate(92.000000, 260.000000)">
                    <rect id="矩形" fill="#000000" opacity="0" x="0" y="0" width="21" height="21"></rect>
                    <path d="M10.5379805,2.97186914 C6.36031348,2.97186914 2.97191016,6.3595957 2.97191016,10.5379395 C2.97191016,14.7165293 6.3598623,18.1040098 10.5379805,18.1040098 C14.7165703,18.1040098 18.1040508,14.7172881 18.1040508,10.5379395 C18.1040508,6.36027246 14.7166318,2.97186914 10.5379805,2.97186914 Z M13.6399307,12.6377549 C13.7685146,12.7652725 13.8481465,12.9420498 13.8481465,13.1373867 C13.8481465,13.1378994 13.8481465,13.1384121 13.8481465,13.1389453 C13.8481465,13.1390068 13.8481465,13.1391094 13.8481465,13.1392939 C13.8481465,13.5307061 13.5308496,13.8480029 13.1394375,13.8480029 C12.9434854,13.8480029 12.7661133,13.7684941 12.6378164,13.6399307 L10.5380215,11.5413457 L8.43968262,13.6406074 C8.31140625,13.7692324 8.13401367,13.8488232 7.93802051,13.8488232 C7.93769238,13.8488232 7.93738477,13.8488232 7.93707715,13.8488232 C7.54617773,13.8488232 7.22836816,13.5317109 7.22836816,13.1392939 C7.22836816,13.1389248 7.22836816,13.1385352 7.22836816,13.1381455 C7.22836816,12.9429727 7.30765137,12.7663594 7.43580469,12.6386982 L9.53537402,10.5379805 L7.43629688,8.43902637 C7.30812305,8.31095508 7.22881934,8.13397266 7.22881934,7.93847168 C7.22881934,7.93804102 7.22881934,7.93761035 7.22881934,7.93717969 C7.22881934,7.54562402 7.54640332,7.22795801 7.93810254,7.22795801 C7.93830762,7.22795801 7.93857422,7.22795801 7.93884082,7.22795801 C8.1343418,7.22795801 8.31130371,7.3072207 8.43941602,7.43541504 L10.5377549,9.53496387 L12.6375498,7.43594824 C12.7658467,7.30777441 12.9430342,7.22849121 13.1387197,7.22849121 C13.5303779,7.22849121 13.8478594,7.54599316 13.8478594,7.93763086 C13.8478594,7.93769238 13.8478594,7.93777441 13.8478594,7.93777441 C13.8478594,7.93818457 13.8478594,7.93867676 13.8478594,7.93914844 C13.8478594,8.13473145 13.768248,8.31173438 13.6397051,8.43949805 L11.5413252,10.5378779 L13.6398896,12.6377959 L13.6399307,12.6377549 Z" id="形状" fill-opacity="0.8" fill="#2A2A2A"></path>
                </g>
            </g>
        </g>
    </g>
</svg>