<?xml version="1.0" encoding="UTF-8"?>
<svg width="24px" height="24px" viewBox="0 0 24 24" version="1.1" xmlns="http://www.w3.org/2000/svg" xmlns:xlink="http://www.w3.org/1999/xlink">
    <!-- Generator: Sketch 55.1 (78136) - https://sketchapp.com -->
    <title>shezhi1</title>
    <desc>Created with Sketch.</desc>
    <g id="页面1" stroke="none" stroke-width="1" fill="none" fill-rule="evenodd">
        <g id="shezhi1" transform="translate(1.000000, 1.000000)" fill="#9FA4BB" fill-rule="nonzero">
            <path d="M12.3778119,21.9325153 L9.56032721,21.9325153 C9.14979552,21.9325153 8.79550104,21.6344581 8.72801635,21.2295501 L8.37372187,19.1150307 C7.91257669,18.9688139 7.46267893,18.7888548 7.03527607,18.5695297 L5.29754601,19.8123722 C4.9601227,20.0541922 4.50460123,20.0148262 4.2121677,19.7223926 L2.21574641,17.7259714 C1.92331288,17.4335378 1.88394681,16.9723926 2.12576687,16.640593 L3.32361963,14.9647239 C3.07617586,14.5148262 2.87372187,14.0368098 2.71063396,13.547546 L0.702965244,13.2157464 C0.298057269,13.1482617 0,12.7939673 0,12.3834356 L0,9.56032721 C0,9.14979552 0.298057269,8.79550104 0.702965244,8.72801635 L2.60378322,8.41308794 C2.76124743,7.87883436 2.96932515,7.35582822 3.22801635,6.84969325 L2.12014316,5.29754601 C1.87832313,4.9601227 1.91768917,4.50460123 2.2101227,4.2121677 L4.20654396,2.21574641 C4.49897749,1.92331288 4.9601227,1.88394681 5.2919223,2.12576687 L6.78220859,3.19427402 C7.30521472,2.9074642 7.85071574,2.6768916 8.41871166,2.50255623 L8.71676892,0.708588957 C8.78425359,0.303680982 9.13854807,0.00562371309 9.54907975,0.00562371309 L12.3665644,0.00562371309 C12.7770961,0.00562371309 13.1313906,0.303680982 13.1988752,0.708588957 L13.4969325,2.50255623 C14.0649284,2.6768916 14.6104294,2.9074642 15.1334356,3.19427402 L16.6237219,2.12576687 C16.9611452,1.88394684 17.4222904,1.92331288 17.7091002,2.21574641 L19.7055215,4.2121677 C19.997955,4.50460123 20.0373211,4.96574644 19.795501,5.29754601 L18.6876278,6.84969325 C18.946319,7.35020451 19.1543967,7.87321064 19.3118609,8.41308794 L21.2183027,8.72801635 C21.6232106,8.79550101 21.9212679,9.14979549 21.9212679,9.56032721 L21.9212679,12.3834356 C21.9212679,12.7939673 21.6232106,13.1482617 21.2183027,13.2157464 L19.210634,13.547546 C19.047546,14.0368098 18.845092,14.5092025 18.5976483,14.9647239 L19.795501,16.640593 C20.037321,16.9780164 19.997955,17.4335378 19.7055215,17.7259714 L17.7091002,19.7223926 C17.4166667,20.0148262 16.9555215,20.0541922 16.6237219,19.8123722 L14.902863,18.5695297 C14.4698364,18.7888548 14.0255624,18.9688139 13.5644172,19.1150307 L13.2101227,21.2295501 C13.142638,21.6344581 12.7883436,21.9325153 12.3778119,21.9325153 Z M10.2689162,20.2453988 L11.6579755,20.2453988 L11.9841513,18.3052147 C12.0403885,17.9734151 12.2878323,17.7034765 12.6196319,17.6247444 C13.2944785,17.4616564 13.9355828,17.2029652 14.5316973,16.8486708 C14.8185071,16.6799591 15.1784253,16.6912066 15.4539877,16.8880368 L17.0398773,18.0240286 L18.0240286,17.0398773 L16.9217791,15.4989775 C16.7249489,15.2177914 16.7137014,14.8466258 16.8936605,14.559816 C17.2760736,13.952454 17.5628834,13.2944785 17.7484663,12.5915133 C17.8328221,12.2709611 18.097137,12.0291411 18.4289366,11.9729039 L20.2510225,11.6692229 L20.2510225,10.2801636 L18.5076687,9.98773006 C18.1646217,9.93149285 17.894683,9.67280163 17.8215746,9.33537831 C17.6641104,8.60429448 17.3829243,7.89570552 16.9836401,7.23210635 C16.8093047,6.94529653 16.8261759,6.5797546 17.0230061,6.30981595 L18.0240286,4.9095092 L17.0398773,3.92535788 L15.6789366,4.89263804 C15.3977505,5.09509202 15.0209611,5.10071574 14.7341513,4.91513292 C14.0705521,4.49335377 13.345092,4.18404908 12.5746421,4.00408997 C12.244076,3.92590791 11.9919054,3.65825314 11.9335378,3.32361963 L11.6635992,1.68711656 L10.2745399,1.68711656 L10.0046012,3.31237218 C9.94836402,3.64979549 9.69529653,3.91973414 9.36349693,3.99284254 C8.59304703,4.17280165 7.8675869,4.48210635 7.20398773,4.90388549 C6.9115542,5.08946831 6.54038856,5.07822086 6.25920245,4.88139058 L4.90388549,3.91411043 L3.91973414,4.89826175 L4.92075666,6.2985685 C5.11758693,6.57413086 5.12883436,6.93404908 4.9601227,7.2208589 C4.56083844,7.88445807 4.27965236,8.59304703 4.12218813,9.32413089 C4.04907975,9.6615542 3.7791411,9.9202454 3.43609408,9.97648261 L1.69274028,10.2689162 L1.69274028,11.6579755 L3.51482617,11.9616564 C3.84100203,12.0178937 4.11094068,12.2597137 4.19529653,12.5802659 C4.37525564,13.2776074 4.66206546,13.9412066 5.05010224,14.5485685 C5.23568506,14.841002 5.22443761,15.2121677 5.02198365,15.4877301 L3.91973414,17.0286298 L4.90388549,18.0127812 L6.48977506,16.8767894 C6.75971371,16.6799591 7.12525564,16.6687117 7.41206543,16.8374233 C8.00817994,17.1917178 8.64928424,17.450409 9.32413089,17.6134969 C9.65030675,17.692229 9.90337423,17.9621677 9.95961144,18.2939673 L10.2689162,20.2453988 L10.2689162,20.2453988 Z" id="形状"></path>
            <path d="M10.9662577,15.1840491 C8.63803681,15.1840491 6.74846626,13.2944785 6.74846626,10.9662577 C6.74846626,8.63803681 8.63803681,6.74846626 10.9662577,6.74846626 C13.2944785,6.74846626 15.1840491,8.63803681 15.1840491,10.9662577 C15.1840491,13.2944785 13.2944785,15.1840491 10.9662577,15.1840491 Z M10.9662577,8.43558282 C9.57157463,8.43558282 8.43558282,9.57157463 8.43558282,10.9662577 C8.43558282,12.3609407 9.57157463,13.4969325 10.9662577,13.4969325 C12.3609407,13.4969325 13.4969325,12.3609407 13.4969325,10.9662577 C13.4969325,9.57157463 12.3609407,8.43558282 10.9662577,8.43558282 Z" id="形状"></path>
        </g>
    </g>
</svg>