<?xml version="1.0" encoding="UTF-8"?>
<svg width="24px" height="24px" viewBox="0 0 24 24" version="1.1" xmlns="http://www.w3.org/2000/svg" xmlns:xlink="http://www.w3.org/1999/xlink">
    <!-- Generator: Sketch 55.1 (78136) - https://sketchapp.com -->
    <title>shouye1</title>
    <desc>Created with Sketch.</desc>
    <g id="页面1" stroke="none" stroke-width="1" fill="none" fill-rule="evenodd">
        <g id="shouye1" transform="translate(1.000000, 1.000000)" fill="#9FA4BB" fill-rule="nonzero">
            <path d="M6.90870098,10.3888889 L3.31392974,10.3888889 C1.49540477,10.3855255 0.0220201953,8.88267324 0.0187227762,7.02777777 L0.0187227762,3.3611111 C0.0187227762,1.50944443 1.49857026,5.68434189e-14 3.31392974,5.68434189e-14 L6.90870098,5.68434189e-14 C8.72406046,5.68434189e-14 10.2039079,1.50944443 10.2039079,3.3611111 L10.2039079,7.02777777 C10.2039079,8.87944443 8.72406046,10.3888889 6.90870098,10.3888889 Z M3.31392974,1.83333333 C2.48670585,1.83333333 1.8161084,2.51734274 1.8161084,3.3611111 L1.8161084,7.02777777 C1.8161084,7.43296963 1.97391411,7.82156589 2.2548101,8.10807981 C2.53570609,8.39459372 2.91668282,8.55555557 3.31392974,8.55555557 L6.90870098,8.55555557 C7.3059479,8.55555557 7.68692463,8.39459372 7.96782062,8.10807981 C8.24871661,7.82156589 8.40652232,7.43296963 8.40652232,7.02777777 L8.40652232,3.3611111 C8.40652232,2.51734274 7.73592487,1.83333333 6.90870098,1.83333333 L3.31392974,1.83333333 L3.31392974,1.83333333 Z M7.20826526,22 L3.61349402,22 C1.79496905,21.9966366 0.321584462,20.4937844 0.318287028,18.6388889 L0.318287028,14.9722222 C0.318287028,13.1205556 1.79813451,11.6111111 3.61349402,11.6111111 L7.20826526,11.6111111 C9.02362474,11.6111111 10.5034722,13.1205555 10.5034722,14.9722222 L10.5034722,18.6388889 C10.5034722,20.4905556 9.02362474,22 7.20826526,22 Z M3.61349402,13.4444444 C3.21624709,13.4444444 2.83527036,13.6054063 2.55437436,13.8919202 C2.27347837,14.1784341 2.11567265,14.5670304 2.11567265,14.9722222 L2.11567265,18.6388889 C2.11567265,19.0440808 2.27347838,19.432677 2.55437437,19.7191909 C2.83527037,20.0057048 3.21624709,20.1666667 3.61349402,20.1666667 L7.20826526,20.1666667 C8.03548914,20.1666667 8.7060866,19.4826573 8.7060866,18.6388889 L8.7060866,14.9722222 C8.7060866,14.5670304 8.54828089,14.1784341 8.2673849,13.8919202 C7.98648891,13.6054063 7.60551218,13.4444444 7.20826526,13.4444444 L3.61349402,13.4444444 L3.61349402,13.4444444 Z M18.5917075,22 L14.9969363,22 C13.1784113,21.9966366 11.7050267,20.4937844 11.7017293,18.6388889 L11.7017293,14.9722222 C11.7017293,13.1205556 13.1815768,11.6111111 14.9969363,11.6111111 L18.5917075,11.6111111 C20.407067,11.6111111 21.8869145,13.1205555 21.8869145,14.9722222 L21.8869145,18.6388889 C21.8869145,20.4905556 20.407067,22 18.5917075,22 L18.5917075,22 Z M14.9969363,13.4444444 C14.5996894,13.4444444 14.2187126,13.6054063 13.9378166,13.8919202 C13.6569206,14.1784341 13.4991149,14.5670304 13.4991149,14.9722222 L13.4991149,18.6388889 C13.4991149,19.4826573 14.1697124,20.1666667 14.9969363,20.1666667 L18.5917075,20.1666667 C19.4189314,20.1666667 20.0895289,19.4826573 20.0895289,18.6388889 L20.0895289,14.9722222 C20.0895289,14.5670304 19.9317231,14.1784341 19.6508272,13.8919202 C19.3699312,13.6054063 18.9889544,13.4444444 18.5917075,13.4444444 L14.9969363,13.4444444 L14.9969363,13.4444444 Z M16.4947576,10.3888889 C16.3329929,10.3888889 16.1712282,10.3827778 16.0094635,10.3644444 C15.5121868,10.3155555 15.1527097,9.86944443 15.20064,9.36833333 C15.2485703,8.8611111 15.6859341,8.48833333 16.1772195,8.54333333 C16.2850626,8.54944443 16.3869145,8.55555557 16.4947576,8.55555557 C18.3101171,8.55555557 19.7899646,7.04611113 19.7899646,5.19444443 C19.7899646,3.34277774 18.3101171,1.83333333 16.4947576,1.83333333 C14.6793981,1.83333333 13.1995507,3.34277777 13.1995507,5.19444443 C13.1995507,5.335 13.2115332,5.47555554 13.2295071,5.6161111 C13.2894199,6.1172222 12.9419254,6.57555554 12.4446487,6.63666667 C11.947372,6.69166667 11.5040169,6.34333333 11.444104,5.8361111 C11.4201389,5.6222222 11.402165,5.41444443 11.402165,5.19444443 C11.402165,2.32833333 13.6848448,2.84217094e-14 16.4947576,2.84217094e-14 C19.3046705,2.84217094e-14 21.5873502,2.32833333 21.5873502,5.19444443 C21.5873502,8.06055554 19.3046705,10.3888889 16.4947576,10.3888889 L16.4947576,10.3888889 Z" id="形状"></path>
        </g>
    </g>
</svg>