<?xml version="1.0" encoding="UTF-8"?>
<svg width="15px" height="16px" viewBox="0 0 15 16" version="1.1" xmlns="http://www.w3.org/2000/svg" xmlns:xlink="http://www.w3.org/1999/xlink">
    <!-- Generator: Sketch 55.1 (78136) - https://sketchapp.com -->
    <title>shuaxin_14</title>
    <desc>Created with Sketch.</desc>
    <g id="页面1" stroke="none" stroke-width="1" fill="none" fill-rule="evenodd">
        <g id="B-14-新建用户" transform="translate(-603.000000, -502.000000)" fill-rule="nonzero">
            <g id="编组-24" transform="translate(381.000000, 138.000000)">
                <g id="shuaxin_14" transform="translate(222.000000, 364.000000)">
                    <rect id="矩形" fill="#000000" opacity="0" x="0" y="0" width="15" height="15"></rect>
                    <path d="M0.372263386,9.22727274 C0.917717936,12.1590909 3.23589975,14.5454546 6.23589975,15.0909091 C8.41771794,15.5 10.6677179,14.9545455 12.3040816,13.5227273 C14.008627,12.0909091 14.9631725,10.0454546 14.9631725,7.86363636 L13.8722634,7.86363636 C13.8722634,9.56818181 13.1904452,11.1363636 11.9631725,12.2954546 C10.7358998,13.4545455 9.09953612,14.1363636 7.39499066,14.0681818 C4.12226339,14 1.39499066,11.2727273 1.32680885,8 C1.25862704,6.29545455 1.94044521,4.65909091 3.09953612,3.43181819 C4.25862702,2.20454546 5.89499066,1.52272728 7.59953612,1.52272728 C9.30408159,1.52272728 10.9404452,2.20454546 12.0995361,3.43181819 L12.1677179,3.5 L9.84953612,3.5 L9.84953612,4.5909091 L13.5313543,4.5909091 C13.6677179,4.5909091 13.8040816,4.45454546 13.8040816,4.31818183 L13.8040816,0.431818188 L12.7131725,0.431818188 L12.7131725,2.54545455 L12.6449907,2.47727274 C11.2813543,1.18181819 9.44044521,0.431818188 7.59953612,0.431818188 C5.41771794,0.431818188 3.3722634,1.38636364 1.94044521,3.0909091 C0.508627023,4.79545455 -0.0368275128,6.97727274 0.372263386,9.22727274 Z" id="路径" fill="#707070"></path>
                </g>
            </g>
        </g>
    </g>
</svg>