<?xml version="1.0" encoding="UTF-8"?>
<svg width="20px" height="16px" viewBox="0 0 20 16" version="1.1" xmlns="http://www.w3.org/2000/svg" xmlns:xlink="http://www.w3.org/1999/xlink">
    <!-- Generator: Sketch 55.1 (78136) - https://sketchapp.com -->
    <title>sp</title>
    <desc>Created with Sketch.</desc>
    <g id="页面1" stroke="none" stroke-width="1" fill="none" fill-rule="evenodd">
        <g id="B-4-发新帖" transform="translate(-523.000000, -541.000000)">
            <g id="编组-5备份" transform="translate(403.000000, 178.000000)">
                <g id="sp" transform="translate(120.000000, 361.000000)">
                    <rect id="矩形" x="0" y="0" width="20" height="20"></rect>
                    <path d="M12.2327116,17.9279762 L3.4927465,17.9279762 C1.56505105,17.9279762 0.00234512026,16.2223943 0.00234512026,14.1184524 L0.00234512026,5.82130953 C0.00234512026,3.71736763 1.56505105,2.01178571 3.4927465,2.01178571 L12.2327116,2.01178571 C14.1604071,2.01178571 15.723113,3.71736763 15.723113,5.82130953 L15.723113,14.1184524 C15.723113,16.2223943 14.1604071,17.9279762 12.2327116,17.9279762 Z M3.4927465,3.53559525 C2.33612923,3.53559525 1.39850567,4.55894439 1.39850567,5.82130953 L1.39850567,14.1184524 C1.39850567,14.7246615 1.61914826,15.3060419 2.01189461,15.7346965 C2.40464095,16.163351 2.9373193,16.4041667 3.4927465,16.4041667 L12.2327116,16.4041667 C13.3893289,16.4041667 14.3269525,15.3808175 14.3269525,14.1184524 L14.3269525,5.82130953 C14.3269525,4.55894439 13.3893289,3.53559525 12.2327116,3.53559525 L3.4927465,3.53559525 Z" id="形状" fill="#4D574F" fill-rule="nonzero"></path>
                    <path d="M18.1943172,16.3203631 C17.7244444,16.3203631 17.2742261,16.1145625 16.9447535,15.7489286 L14.6829734,13.2194048 C14.4123112,12.9222334 14.4123112,12.4422904 14.6829734,12.145119 C14.8140496,12.0008808 14.992476,11.9197489 15.1786104,11.9197489 C15.3647448,11.9197489 15.5431712,12.0008808 15.6742474,12.145119 L17.9430083,14.6517857 C18.042235,14.7648112 18.1955288,14.7982731 18.3269525,14.7355952 C18.4585628,14.6788684 18.5445851,14.539552 18.5433573,14.385119 L18.5433573,5.50892857 C18.5445851,5.3544956 18.4585628,5.21517919 18.3269525,5.15845239 C18.195313,5.09803458 18.0432306,5.13123199 17.9430083,5.2422619 L15.5136889,7.95464286 C15.2438115,8.25550655 14.8015658,8.26062329 14.5259053,7.96607142 C14.2502449,7.67151955 14.2455568,7.18883987 14.5154341,6.88797618 L16.9447535,4.17559525 C17.443301,3.62824001 18.1944392,3.4616142 18.849203,3.75312911 C19.5039669,4.04464402 19.9340004,4.7371528 19.9395248,5.50892857 L19.9395248,14.4155952 C19.9415089,15.1904769 19.5098271,15.8881411 18.8505127,16.1755952 C18.6429887,16.2717419 18.4197637,16.3209871 18.1943172,16.3203631 L18.1943172,16.3203631 Z M6.85051266,7.11654761 L3.36011126,7.11654761 C2.97457217,7.11654761 2.66203098,6.77543123 2.66203098,6.35464286 C2.66203098,5.93385448 2.97457217,5.5927381 3.36011126,5.5927381 L6.85051266,5.5927381 C7.23605175,5.5927381 7.54859293,5.93385448 7.54859293,6.35464286 C7.54859293,6.77543123 7.23605175,7.11654761 6.85051266,7.11654761 Z" id="形状" fill="#4D574F" fill-rule="nonzero"></path>
                </g>
            </g>
        </g>
    </g>
</svg>