<?xml version="1.0" encoding="UTF-8"?>
<svg width="23px" height="23px" viewBox="0 0 23 23" version="1.1" xmlns="http://www.w3.org/2000/svg" xmlns:xlink="http://www.w3.org/1999/xlink">
    <!-- Generator: Sketch 55.1 (78136) - https://sketchapp.com -->
    <title>tishi</title>
    <desc>Created with Sketch.</desc>
    <g id="页面1" stroke="none" stroke-width="1" fill="none" fill-rule="evenodd">
        <g id="B-12-删除" transform="translate(-437.000000, -369.000000)" fill="#FBB448" fill-rule="nonzero">
            <g id="编组备份" transform="translate(403.000000, 299.000000)">
                <g id="tishi" transform="translate(34.000000, 70.000000)">
                    <path d="M22.6388787,19.7742435 L13.1581488,1.33050195 C12.2464847,-0.44350065 10.7537204,-0.44350065 9.84205626,1.33050195 L0.360965895,19.7742435 C-0.550698206,21.5482461 0.324917493,23 2.30757963,23 L20.6922649,23 C22.6749271,23 23.5509033,21.5482461 22.6388787,19.7742435 Z M10.3467339,6.98529418 C10.3467339,6.34370323 10.862947,5.82309178 11.4999223,5.82309178 C12.1368976,5.82309178 12.6538317,6.34406653 12.6538317,6.98529418 L12.6538317,14.8333393 C12.6538317,15.4749302 12.1368976,15.9955417 11.4999223,15.9955417 C10.862947,15.9955417 10.3467339,15.4745669 10.3467339,14.8333393 L10.3467339,6.98529418 Z M11.4999223,20.4274601 C10.7036131,20.4274601 10.0579862,19.7775132 10.0579862,18.974253 C10.0579862,18.1717193 10.7036131,17.5210458 11.4999223,17.5210458 C12.2962315,17.5210458 12.9418584,18.1717193 12.9418584,18.974253 C12.9418584,19.7775132 12.2962315,20.4274601 11.4999223,20.4274601 Z" id="形状"></path>
                </g>
            </g>
        </g>
    </g>
</svg>