<?xml version="1.0" encoding="UTF-8"?>
<svg width="20px" height="24px" viewBox="0 0 20 24" version="1.1" xmlns="http://www.w3.org/2000/svg" xmlns:xlink="http://www.w3.org/1999/xlink">
    <!-- Generator: Sketch 55.1 (78136) - https://sketchapp.com -->
    <title>tixing</title>
    <desc>Created with Sketch.</desc>
    <g id="页面1" stroke="none" stroke-width="1" fill="none" fill-rule="evenodd">
        <g id="B-21-管理功能" transform="translate(-1065.000000, -51.000000)">
            <g id="tixing" transform="translate(1062.000000, 51.000000)">
                <g id="xiaoxi" fill-rule="nonzero">
                    <rect id="矩形" fill="#000000" opacity="0" x="0" y="0" width="24" height="24"></rect>
                    <path d="M9.68395312,21.0698672 C9.68395312,22.6567031 10.9702734,23.9430469 12.5569453,23.9430469 C14.1439687,23.9430469 15.4303007,22.6567266 15.4303007,21.0698672 C15.4397344,21.0873281 9.70230469,21.0745781 9.68395312,21.0698672 Z M20.5581094,13.9331719 C20.5453594,13.8585234 20.5334531,13.7777578 20.5222734,13.6913906 C20.4553125,13.1728828 20.4317109,12.628125 20.4317109,12.2923125 L20.4317109,9.988875 C20.4317109,6.77376563 18.6808828,3.89882813 16.0147031,2.51671875 C15.5570391,1.05417187 14.1749062,0 12.5569453,0 C10.9309453,0 9.541125,1.06553906 9.09182812,2.54224219 C6.47932031,3.94832812 4.68250781,6.83076563 4.68250781,9.98852344 L4.68250781,12.2690625 C4.68250781,12.6096094 4.65925781,13.1601094 4.59264844,13.6851094 C4.58182031,13.7707734 4.56991406,13.8511875 4.55786719,13.9256719 C3.63883594,14.3594063 2.97977344,15.2976563 2.97977344,16.41075 C2.97977344,17.941125 4.23009375,19.1545547 5.74666406,19.1545547 L12.5569687,19.1545547 L18.5162344,19.1545547 L19.3676016,19.1545547 C20.8866094,19.1545547 22.1344922,17.9379844 22.1344922,16.41075 C22.1344922,15.309 21.4865859,14.3721328 20.5581094,13.9331719 Z M19.3675781,17.2391953 L18.5162109,17.2391953 L12.5569453,17.2391953 L5.74664062,17.2391953 C5.27620312,17.2391953 4.89527344,16.8713672 4.89527344,16.4107266 C4.89527344,15.9533906 5.27376562,15.5827734 5.76850781,15.5827734 C6.59803125,15.5539219 6.59803125,12.2690625 6.59803125,12.2690625 L6.59803125,9.98852344 C6.59803125,7.09157812 8.52665625,4.642875 10.877625,3.84569531 C10.86225,3.75689063 10.854375,3.66527344 10.854375,3.57210938 C10.854375,2.65692188 11.6188594,1.91533594 12.5569453,1.91533594 C13.4974687,1.91533594 14.2598672,2.65903125 14.2598672,3.57210938 C14.2598672,3.66440625 14.2519922,3.75532031 14.2369687,3.84377344 C16.7129297,4.63851563 18.5162109,7.0884375 18.5162109,9.988875 L18.5162109,12.2923125 C18.5162109,12.2923125 18.5162109,15.5827734 19.3675781,15.5827734 C19.8380156,15.5827734 20.2189453,15.95025 20.2189453,16.4107266 C20.2189453,16.8682266 19.840125,17.2391953 19.3675781,17.2391953 Z" id="形状" fill="#2F3325"></path>
                </g>
                <circle id="椭圆形" stroke="#F8F9FB" fill="#FF605D" cx="17.5" cy="4.5" r="3.5"></circle>
            </g>
        </g>
    </g>
</svg>