<?xml version="1.0" encoding="UTF-8"?>
<svg width="18px" height="18px" viewBox="0 0 18 18" version="1.1" xmlns="http://www.w3.org/2000/svg" xmlns:xlink="http://www.w3.org/1999/xlink">
    <!-- Generator: Sketch 55.1 (78136) - https://sketchapp.com -->
    <title>tp</title>
    <desc>Created with Sketch.</desc>
    <g id="页面1" stroke="none" stroke-width="1" fill="none" fill-rule="evenodd">
        <g id="B-4-发新帖" transform="translate(-436.000000, -540.000000)">
            <g id="编组-5备份" transform="translate(403.000000, 178.000000)">
                <g id="tp" transform="translate(32.000000, 361.000000)">
                    <rect id="矩形备份-7" x="0" y="0" width="20" height="20"></rect>
                    <path d="M15.3490909,18.8856928 L4.63636364,18.8856928 C2.62805546,18.8856928 1,17.2674449 1,15.2712349 L1,4.63027108 C1,2.63406114 2.62805547,1.01581326 4.63636364,1.01581326 L15.3490909,1.01581326 C17.3573991,1.01581326 18.9854545,2.63406115 18.9854545,4.63027108 L18.9854545,15.2712349 C18.9854545,17.2674449 17.3573991,18.8856928 15.3490909,18.8856928 Z M4.63636364,2.46159638 C3.43137873,2.46159638 2.45454546,3.43254511 2.45454546,4.63027108 L2.45454546,15.2712349 C2.45454546,16.4689609 3.43137873,17.4399096 4.63636364,17.4399096 L15.3490909,17.4399096 C16.5540758,17.4399096 17.5309091,16.4689609 17.5309091,15.2712349 L17.5309091,4.63027108 C17.5309091,3.43254511 16.5540758,2.46159638 15.3490909,2.46159638 L4.63636364,2.46159638 Z" id="形状" fill="#4D574F" fill-rule="nonzero"></path>
                    <path d="M8.14181817,18.8929309 C7.76692504,18.8947891 7.45203053,18.6130913 7.41454545,18.2423193 C7.41454545,17.9025602 7.36363637,17.5628012 7.36363637,17.2230422 C7.37165591,11.6860389 11.8876167,7.20051675 17.4581818,7.19653615 L18.1854546,7.19653615 C18.4452841,7.21590597 18.6749801,7.37158678 18.7880185,7.60493512 C18.9010568,7.83828345 18.8802642,8.11384816 18.733473,8.32782667 C18.5866818,8.54180519 18.3361932,8.66168909 18.0763636,8.64231927 L17.4290909,8.64231927 C12.6788689,8.66214823 8.83412062,12.486963 8.81818181,17.2085843 C8.81818181,17.5049699 8.81818181,17.7941265 8.86181817,18.0832831 C8.89993751,18.4779183 8.61117555,18.8294402 8.21454546,18.8712349 L8.14181817,18.8929309 Z M6.21454545,8.7869077 C5.15721343,8.78982101 4.20249257,8.15859955 3.79650932,7.1881933 C3.39052606,6.21778706 3.61344175,5.09980264 4.36109129,4.35665701 C5.10874083,3.61351138 6.23350092,3.39193856 7.20978841,3.79547614 C8.1860759,4.19901371 8.82112295,5.14798323 8.81819198,6.19894579 C8.81819198,7.6282321 7.65249411,8.7869077 6.21454545,8.7869077 L6.21454545,8.7869077 Z M6.21454545,5.04952531 C5.74618945,5.04662025 5.32231038,5.32479796 5.14103351,5.7540583 C4.95975663,6.18331864 5.05688697,6.67887601 5.38702484,7.00910199 C5.71716271,7.33932796 6.21510073,7.43899777 6.64809775,7.26152475 C7.08109476,7.08405174 7.36363637,6.66448958 7.36363637,6.19894579 C7.36363637,5.56696341 6.85034545,5.05352293 6.21454545,5.04952531 Z" id="形状" fill="#4D574F" fill-rule="nonzero"></path>
                </g>
            </g>
        </g>
    </g>
</svg>