<?xml version="1.0" encoding="UTF-8"?>
<svg width="20px" height="18px" viewBox="0 0 20 18" version="1.1" xmlns="http://www.w3.org/2000/svg" xmlns:xlink="http://www.w3.org/1999/xlink">
    <!-- Generator: Sketch 55.1 (78136) - https://sketchapp.com -->
    <title>wenjian</title>
    <desc>Created with Sketch.</desc>
    <g id="页面1" stroke="none" stroke-width="1" fill="none" fill-rule="evenodd">
        <g id="B-5-发新帖2" transform="translate(-479.000000, -540.000000)">
            <g id="编组-5备份" transform="translate(403.000000, 178.000000)">
                <g id="wenjian" transform="translate(76.000000, 361.000000)">
                    <rect id="矩形备份-9" x="0" y="0" width="20" height="20"></rect>
                    <g id="编组" transform="translate(0.558398, 1.014797)" fill="#4D574F" fill-rule="nonzero">
                        <path d="M15.3302857,17.8771084 L3.6190476,17.8771084 C1.6203028,17.8771084 7.90478794e-13,16.2588605 7.90478794e-13,14.2626506 L7.90478794e-13,3.61445782 C7.90478794e-13,1.61824789 1.62030281,1.42108547e-14 3.6190476,1.42108547e-14 L7.53485714,1.42108547e-14 C8.70478745,0.000720481167 9.8022024,0.566236126 10.4807619,1.51807229 L10.8137143,1.98795179 C11.2221254,2.55590281 11.8796759,2.89233545 12.5798095,2.89156626 L15.3230476,2.89156626 C17.3217924,2.89156626 18.9420952,4.50981415 18.9420952,6.5060241 L18.9420952,14.2626506 C18.9420952,16.2560409 17.3262033,17.8731216 15.3302857,17.8771084 Z M3.6190476,1.44578312 C2.41980072,1.44578312 1.44761903,2.41673185 1.44761903,3.61445782 L1.44761903,14.2626506 C1.44761903,15.4603766 2.41980072,16.4313253 3.6190476,16.4313253 L15.3302857,16.4313253 C16.5295326,16.4313253 17.5017143,15.4603766 17.5017143,14.2626506 L17.5017143,6.5060241 C17.5017143,5.30829813 16.5295326,4.3373494 15.3302857,4.3373494 L12.5870476,4.3373494 C11.4184324,4.33829591 10.3212768,3.77560621 9.64114286,2.82650602 L9.30819046,2.35662649 C8.90135138,1.78593992 8.24354234,1.44668245 7.54209523,1.44578312 L3.6190476,1.44578312 Z" id="形状"></path>
                        <path d="M0.723809517,7.56144577 C0.324060559,7.56144577 1.59872116e-13,7.23779619 1.59872116e-13,6.83855421 C1.59872116e-13,6.43931223 0.324060559,6.11566265 0.723809517,6.11566265 L18.2255238,6.11566265 C18.6252728,6.11566265 18.9493333,6.43931223 18.9493333,6.83855421 C18.9493333,7.23779619 18.6252728,7.56144577 18.2255238,7.56144577 L0.723809517,7.56144577 Z" id="路径"></path>
                    </g>
                </g>
            </g>
        </g>
    </g>
</svg>