<?xml version="1.0" encoding="UTF-8"?>
<svg width="40px" height="34px" viewBox="0 0 40 34" version="1.1" xmlns="http://www.w3.org/2000/svg" xmlns:xlink="http://www.w3.org/1999/xlink">
    <!-- Generator: Sketch 55.1 (78136) - https://sketchapp.com -->
    <title>wenjianjia</title>
    <desc>Created with Sketch.</desc>
    <g id="新" stroke="none" stroke-width="1" fill="none" fill-rule="evenodd">
        <g id="1-3收藏" transform="translate(-50.000000, -394.000000)" fill-rule="nonzero">
            <g id="wenjianjia" transform="translate(50.000000, 394.000000)">
                <path d="M38.2384113,34 L1.76158899,34 C1.29424043,34.0004561 0.845895845,33.8231579 0.515430331,33.5072048 C0.184964817,33.1912517 -0.000477044956,32.7625962 0,32.3157713 L0,4.81556194 C-0.000408753117,4.36877957 0.185063257,3.94018726 0.515521357,3.62428734 C0.845979456,3.30838742 1.294285,3.13112296 1.76158899,3.13157895 L38.2384113,3.13157895 C38.7057152,3.13112296 39.1540208,3.30838742 39.4844789,3.62428734 C39.814937,3.94018726 40.000409,4.36877957 40,4.81556194 L40,32.316017 C40,33.2430179 39.2079914,34 38.2384113,34 Z" id="路径" fill="#1CA0DA"></path>
                <path d="M20.2298851,10.2894737 L0,10.2894737 L0,1.68746024 C-0.000344855905,1.23973344 0.187290709,0.810257561 0.521541834,0.493713017 C0.855792959,0.177168473 1.30921489,-0.000453835415 1.78184816,0 L15.6269735,0 C16.4137193,-0.00160329108 17.1077195,0.48755938 17.3321407,1.20188255 L20.2298851,10.2894737 L20.2298851,10.2894737 Z" id="路径" fill="#1CA0DA"></path>
                <path d="M35.4740934,32.2105263 L4.5212782,32.2105263 C4.05364616,32.2109857 3.60502964,32.0324183 3.27436368,31.7142034 C2.94369771,31.3959884 2.75814336,30.9642643 2.75862069,30.5142407 L2.75862069,7.51207512 C2.75814336,7.0620515 2.9436977,6.63032736 3.27436366,6.31211244 C3.60502963,5.99389751 4.05364616,5.81533011 4.5212782,5.81578947 L35.4787218,5.81578947 C35.9463538,5.81533011 36.3949704,5.99389751 36.7256363,6.31211244 C37.0563023,6.63032736 37.2418566,7.0620515 37.2413793,7.51207512 L37.2413793,30.5142407 C37.2413793,31.4481252 36.44889,32.2105263 35.4740934,32.2105263 Z" id="路径" fill="#FFFFFF"></path>
                <path d="M38.238411,34 L1.76158898,34 C1.29424042,34.0004546 0.84589584,33.8237403 0.515430328,33.5088278 C0.184964816,33.1939153 -0.000477044953,32.7666715 0,32.3213181 L0,10.6260503 C-0.000477044953,10.1806969 0.184964816,9.75345316 0.515430328,9.43854062 C0.84589584,9.12362808 1.29424042,8.94691383 1.76158898,8.94736842 L38.238411,8.94736842 C38.7057596,8.94691383 39.1541042,9.12362808 39.4845697,9.43854062 C39.8150352,9.75345316 40.000477,10.1806969 40,10.6260503 L40,32.3213181 C40,33.245511 39.2079911,34 38.238411,34 L38.238411,34 Z" id="路径" fill="#6ECCF6"></path>
                <g id="80备份-3" transform="translate(14.000000, 16.000000)" fill="#1CA0DA">
                    <path d="M10.5648079,0.00125541156 L9.039034,0.00125541156 C8.55374381,0.00125541156 8.15986561,0.369090999 8.15986561,0.822294573 L8.15986561,10.3508683 C8.15986561,10.8040719 8.55374381,11.1719075 9.039034,11.1719075 L10.5648079,11.1719075 C11.0500981,11.1719075 11.4439763,10.8040719 11.4439763,10.3508683 L11.4439763,0.822294573 C11.4439763,0.369090999 11.0500981,0.00125541156 10.5648079,0.00125541156 Z M2.24093838,7.12446062 L2.24093838,10.1876648 L1.06199239,10.1876648 L1.06199239,7.12446062 L2.24093838,7.12446062 L2.24093838,7.12446062 Z M2.41435233,6.14147336 L0.888578447,6.14147336 C0.403288251,6.14147336 0.00941005919,6.50930895 0.00941005919,6.96251252 L0.00941005919,10.3508683 C0.00941005919,10.8040719 0.403288251,11.1719075 0.888578447,11.1719075 L2.41435233,11.1719075 C2.89964253,11.1719075 3.29352072,10.8040719 3.29352072,10.3508683 L3.29352072,6.96251252 C3.29352072,6.50930895 2.89964253,6.14147336 2.41435233,6.14147336 L2.41435233,6.14147336 Z M6.13267,2.98160246 L6.13267,10.1876648 L4.95506831,10.1876648 L4.95506831,2.98160246 L6.13267,2.98160246 L6.13267,2.98160246 Z M6.30742825,1.99861521 L4.78165436,1.99861521 C4.29636417,1.99861521 3.90248598,2.36645079 3.90248598,2.81965437 L3.90248598,10.3508683 C3.90248598,10.8040719 4.29636417,11.1719075 4.78165436,11.1719075 L6.30742825,11.1719075 C6.79271844,11.1719075 7.18659663,10.8040719 7.18659663,10.3508683 L7.18659663,2.81965437 C7.18659663,2.36645079 6.79271844,1.99861521 6.30742825,1.99861521 L6.30742825,1.99861521 Z" id="形状"></path>
                </g>
            </g>
        </g>
    </g>
</svg>