<?xml version="1.0" encoding="UTF-8"?>
<svg width="18px" height="18px" viewBox="0 0 18 18" version="1.1" xmlns="http://www.w3.org/2000/svg" xmlns:xlink="http://www.w3.org/1999/xlink">
    <!-- Generator: Sketch 55.1 (78136) - https://sketchapp.com -->
    <title>xj</title>
    <desc>Created with Sketch.</desc>
    <g id="页面1" stroke="none" stroke-width="1" fill="none" fill-rule="evenodd">
        <g id="B-17-租户" transform="translate(-1026.000000, -120.000000)" fill="#FFFFFF" fill-rule="nonzero">
            <g id="xj" transform="translate(1026.000000, 120.000000)">
                <path d="M13.25,18 L4.75000001,18 C2.13,18 0,15.87 0,13.25 L0,4.75000001 C0,2.13 2.13,0 4.75000001,0 L13.25,0 C15.87,0 18,2.13 18,4.75000001 L18,13.25 C18,15.87 15.87,18 13.25,18 Z M4.75000001,1.5 C2.95999999,1.5 1.5,2.95999999 1.5,4.75000001 L1.5,13.25 C1.5,15.04 2.95999999,16.5 4.75000001,16.5 L13.25,16.5 C15.04,16.5 16.5,15.04 16.5,13.25 L16.5,4.75000001 C16.5,2.96000002 15.04,1.5 13.25,1.5 L4.75000001,1.5 Z" id="形状"></path>
                <path d="M13,9.75 L4.99999999,9.75 C4.58499998,9.75 4.24999999,9.41500001 4.24999999,9 C4.24999999,8.58499999 4.58499998,8.25 4.99999999,8.25 L13,8.25 C13.415,8.25 13.75,8.58499999 13.75,9 C13.75,9.41500001 13.415,9.75 13,9.75 Z" id="路径"></path>
                <path d="M9,13.75 C8.58499999,13.75 8.25,13.415 8.25,13 L8.25,4.99999999 C8.25,4.58499998 8.58499999,4.24999999 9,4.24999999 C9.41500001,4.24999999 9.75,4.58499998 9.75,4.99999999 L9.75,13 C9.75,13.415 9.41500001,13.75 9,13.75 Z" id="路径"></path>
            </g>
        </g>
    </g>
</svg>