<?xml version="1.0" encoding="UTF-8"?>
<svg width="24px" height="24px" viewBox="0 0 24 24" version="1.1" xmlns="http://www.w3.org/2000/svg" xmlns:xlink="http://www.w3.org/1999/xlink">
    <!-- Generator: Sketch 55.1 (78136) - https://sketchapp.com -->
    <title>yuyan</title>
    <desc>Created with Sketch.</desc>
    <g id="页面1" stroke="none" stroke-width="1" fill="none" fill-rule="evenodd">
        <g id="B-21-管理功能" transform="translate(-31.000000, -711.000000)" fill-rule="nonzero">
            <g id="yuyan" transform="translate(31.000000, 711.000000)">
                <path d="M19.9421538,22.3084615 L4.08692308,22.3084615 C2.66630769,22.3084615 1.51569231,21.1564615 1.51569231,19.7372308 L1.51569231,15.7869231 L22.5147692,15.7869231 L22.5147692,19.7372308 C22.5147692,21.1564615 21.3627692,22.3084615 19.9421538,22.3084615 L19.9421538,22.3084615 Z" id="路径" fill="#FF5F5C"></path>
                <path d="M20.01,0.466153846 L4.07169231,0.466153846 C2.08615385,0.466153846 0.471692308,2.08061538 0.471692308,4.06615385 L0.471692308,19.5392308 C0.471692308,21.5247692 2.08615385,23.1392308 4.07169231,23.1392308 L20.01,23.1392308 C21.9955385,23.1392308 23.61,21.5247692 23.61,19.5392308 L23.61,4.06615385 C23.61,2.08061538 21.9955385,0.466153846 20.01,0.466153846 Z M21.9484615,19.5392308 C21.9484615,20.6081538 21.0789231,21.4776923 20.01,21.4776923 L4.07169231,21.4776923 C3.00276923,21.4776923 2.13323077,20.6081538 2.13323077,19.5392308 L2.13323077,4.06615385 C2.13323077,2.99723077 3.00276923,2.12769231 4.07169231,2.12769231 L20.01,2.12769231 C21.0789231,2.12769231 21.9484615,2.99723077 21.9484615,4.06615385 L21.9484615,19.5392308 Z" id="形状" fill="#2F3325"></path>
                <path d="M10.4589231,9.35123077 C10.9172308,9.35123077 11.2896923,8.97876923 11.2896923,8.52046154 C11.2896923,8.06215385 10.9172308,7.68969231 10.4589231,7.68969231 L5.52830769,7.68969231 C5.07,7.68969231 4.69753846,8.06215385 4.69753846,8.52046154 L4.69753846,15.7149231 C4.69753846,16.1732308 5.07,16.5456923 5.52830769,16.5456923 L10.4603077,16.5456923 C10.9186154,16.5456923 11.2910769,16.1732308 11.2910769,15.7149231 C11.2910769,15.2566154 10.9186154,14.8841538 10.4603077,14.8841538 L6.35907692,14.8841538 L6.35907692,13.0024615 L10.4603077,13.0024615 C10.9186154,13.0024615 11.2910769,12.63 11.2910769,12.1716923 C11.2910769,11.7133846 10.9186154,11.3409231 10.4603077,11.3409231 L6.35907692,11.3409231 L6.35907692,9.35123077 L10.4589231,9.35123077 Z M18.5021538,7.68969231 C18.0438462,7.68969231 17.6713846,8.06215385 17.6713846,8.52046154 L17.6713846,12.9789231 L14.3012308,8.21723077 C14.0918602,7.92204745 13.7156704,7.79609103 13.3707692,7.90569231 C13.026,8.01507692 12.792,8.33492308 12.792,8.69769231 L12.792,15.7855385 C12.792,16.2438462 13.1644615,16.6163077 13.6227692,16.6163077 C14.0810769,16.6163077 14.4535385,16.2438462 14.4535385,15.7855385 L14.4535385,11.3090769 L17.8236923,16.0707692 C18.0330629,16.3659525 18.4092527,16.491909 18.7541538,16.3823077 C19.0989231,16.2729231 19.3329231,15.9530769 19.3329231,15.5903077 L19.3329231,8.52046154 C19.3329231,8.06215385 18.9604615,7.68969231 18.5021538,7.68969231 L18.5021538,7.68969231 Z" id="形状" fill="#2F3325"></path>
            </g>
        </g>
    </g>
</svg>