<?xml version="1.0" encoding="UTF-8"?>
<svg width="18px" height="18px" viewBox="0 0 18 18" version="1.1" xmlns="http://www.w3.org/2000/svg" xmlns:xlink="http://www.w3.org/1999/xlink">
    <!-- Generator: Sketch 55.1 (78136) - https://sketchapp.com -->
    <title>zhanghao</title>
    <desc>Created with Sketch.</desc>
    <g id="页面1" stroke="none" stroke-width="1" fill="none" fill-rule="evenodd">
        <g id="B-0登陆" transform="translate(-833.000000, -324.000000)">
            <g id="zhanghao" transform="translate(832.000000, 323.000000)">
                <g id="Icon-24px">
                    <polygon id="Shape" points="0 0 20 0 20 20 0 20"></polygon>
                    <path d="M10,10 C7.69881354,10 5.83333333,8.13451979 5.83333333,5.83333333 C5.83333333,3.53214688 7.69881354,1.66666667 10,1.66666667 C12.3011865,1.66666667 14.1666667,3.53214688 14.1666667,5.83333333 C14.1666667,8.13451979 12.3011865,10 10,10 Z M10,12.0833333 C12.78125,12.0833333 18.3333333,13.4791667 18.3333333,16.25 L18.3333333,18.3333333 L1.66666667,18.3333333 L1.66666667,16.25 C1.66666667,13.4791667 7.21875,12.0833333 10,12.0833333 Z" id="Combined-Shape" fill="#A2A5BD"></path>
                </g>
            </g>
        </g>
    </g>
</svg>